<?xml version="1.0" encoding="UTF-8"?>
<svg width="134px" height="179px" viewBox="0 0 134 179" version="1.1" xmlns="http://www.w3.org/2000/svg" xmlns:xlink="http://www.w3.org/1999/xlink">
    <title>Group 2</title>
    <g id="Page-1" stroke="none" stroke-width="1" fill="none" fill-rule="evenodd">
        <g id="Aperture---Learning-screen-" transform="translate(-132.000000, -167.000000)">
            <g id="Group" transform="translate(132.000000, 167.000000)">
                <path d="M133.39925,75.3165883 C128.784573,112.009683 95.3006932,138.013024 58.6121764,133.398347 C21.9236597,128.783669 -4.0842594,95.3043677 0.530418023,58.6112729 C5.14509545,21.9227562 38.624397,-4.08058487 75.3174918,0.529514501 C112.006009,5.14419192 138.00935,38.6280716 133.39925,75.3165883" id="Fill-650" fill="#91C0EE"></path>
                <path d="M70.235853,69.420056 C73.7243294,70.2898861 77.2128058,71.0177965 80.7058602,71.4572896 C98.8212159,73.73716 116.872479,70.1159201 133.760916,60.9048775 C133.660199,59.8061447 133.532014,58.7165681 133.380938,57.6361476 C113.805183,68.6463651 92.5538614,71.7365509 71.53602,66.6274437 C89.6330635,57.4255572 102.579797,42.0707674 109.103523,21.9822709 C109.707826,20.1144252 110.252614,18.2053771 110.742466,16.2734388 C109.872636,15.5226381 108.975337,14.7947276 108.064305,14.0851294 C107.510361,16.4428267 106.896901,18.7684777 106.164413,21.0254578 C99.8604339,40.4455586 87.3165687,55.2464039 69.7780477,64.0499999 C78.3435849,38.6326496 70.9729195,16.209346 63.0025293,1.61909112 C62.7461583,1.15670776 62.4577409,0.712636621 62.1967919,0.250253268 C61.0614348,0.332658222 59.9306557,0.442531494 58.8044547,0.584451137 C59.2988844,1.42223484 59.8207824,2.25086243 60.2877438,3.10238029 C67.9742948,17.161581 75.0840111,38.7699912 66.8023132,63.198482 C53.7869086,39.1637038 32.402823,28.560933 15.8852078,23.9096312 C15.1618754,24.761149 14.4614333,25.6355571 13.7838815,26.5282775 C29.8665816,30.8270693 51.2415111,40.9628786 64.0829498,64.668037 C42.3097297,59.2979809 20.0603921,61.8708466 0.306093426,71.9562974 C0.383920327,73.0687643 0.493793599,74.1766531 0.631135189,75.2799639 C19.9505188,65.0892179 41.8107219,62.3973227 63.2222758,67.6346154 C44.1638412,79.8854852 30.850863,97.3507574 24.3546058,118.570033 C25.2015456,119.270475 26.0667977,119.957183 26.9503619,120.616423 C33.0483285,99.7496572 45.9172355,82.5590681 64.4583501,70.5050546 C58.8227669,91.3947104 61.6565817,113.584533 72.5340356,133.778325 C73.6556586,133.686764 74.7681255,133.567735 75.8760143,133.421237 C64.8108602,113.515863 61.8854843,91.5549423 67.5485359,70.9445477 C81.2826949,94.2285252 102.694249,104.584081 119.115725,109.17129 C119.816167,108.310616 120.493719,107.43163 121.152958,106.534332 C105.161819,102.276742 83.7914679,92.3652577 70.235853,69.420056" id="Fill-651" fill="#0B080A"></path>
                <polygon id="Fill-652" fill="#0B080A" points="95.9004181 41.951738 96.7885604 42.4095433 104.063087 69.8549711 91.0980405 94.9747479 63.3825076 103.686783 38.5740384 90.8865465 29.5461179 63.2076381 42.7125984 37.6987268 70.8126877 29.0004261"></polygon>
                <polygon id="Fill-653" fill="#D8D8D8" points="60.9370407 156.284199 60.9370407 158.795636 55.1140522 158.795636 55.1140522 168.406012 60.1232476 168.406012 60.1232476 170.915432 55.1140522 170.915432 55.1140522 179 52.0887648 179 52.0887648 156.27009"></polygon>
                <path d="M75.5577303,167.164403 C76.9554315,164.598545 77.6542821,162.691789 77.6542821,161.446148 C77.6542821,161.085356 77.5922131,160.728595 77.4680752,160.377881 C77.3439372,160.025151 77.1554315,159.708702 76.9071556,159.428534 C76.6588798,159.148366 76.3370407,158.922619 75.9485349,158.751293 C75.5577303,158.579967 75.0979602,158.495312 74.5646269,158.495312 C74.0772706,158.495312 73.5278453,158.579967 72.9140522,158.751293 C72.3025579,158.922619 71.6772706,159.222943 71.0381901,159.65025 L69.5876154,157.568136 C70.316351,157.007799 71.1209487,156.60468 72.0037074,156.362808 C72.8887648,156.120936 73.762328,156 74.6312936,156 C75.6060062,156 76.4749717,156.137061 77.240489,156.413198 C78.0037074,156.689335 78.6496844,157.07633 79.1761212,157.574183 C79.7002591,158.074051 80.1048568,158.666637 80.37842,159.349926 C80.6565809,160.035229 80.794512,160.781001 80.794512,161.589256 C80.794512,162.121374 80.7347418,162.64543 80.6152016,163.157392 C80.4956614,163.67137 80.3117533,164.225659 80.0611786,164.820261 C79.8129028,165.412847 79.4979602,166.065901 79.1186499,166.779423 C78.7393395,167.492945 78.2956614,168.31531 77.7853166,169.246517 L73.7853166,176.490579 L81.0887648,176.490579 L81.0887648,178.985891 L69.1002591,178.985891 L75.5577303,167.164403" id="Fill-654" fill="#D8D8D8"></path>
            </g>
        </g>
    </g>
</svg>