<svg width="40" height="39" viewBox="0 0 40 39" fill="none" xmlns="http://www.w3.org/2000/svg">
<path d="M20 38.5C30.7696 38.5 39.5 29.9934 39.5 19.5C39.5 9.00659 30.7696 0.5 20 0.5C9.23045 0.5 0.5 9.00659 0.5 19.5C0.5 29.9934 9.23045 38.5 20 38.5Z" fill="#C7C7CC" stroke="#0A0A0A"/>
<path d="M20.3203 31.7617C21.9922 31.7617 23.5664 31.4414 25.043 30.8008C26.5195 30.168 27.8164 29.2891 28.9336 28.1641C30.0586 27.0391 30.9414 25.7422 31.582 24.2734C32.2227 22.7969 32.543 21.2188 32.543 19.5391C32.543 17.8672 32.2227 16.2969 31.582 14.8281C30.9414 13.3516 30.0586 12.0508 28.9336 10.9258C27.8164 9.80078 26.5156 8.92188 25.0312 8.28906C23.5547 7.64844 21.9805 7.32812 20.3086 7.32812C18.6367 7.32812 17.0625 7.64844 15.5859 8.28906C14.1094 8.92188 12.8086 9.80078 11.6836 10.9258C10.5664 12.0508 9.6875 13.3516 9.04688 14.8281C8.41406 16.2969 8.09766 17.8672 8.09766 19.5391C8.09766 21.2188 8.41406 22.7969 9.04688 24.2734C9.6875 25.7422 10.5703 27.0391 11.6953 28.1641C12.8203 29.2891 14.1211 30.168 15.5977 30.8008C17.0742 31.4414 18.6484 31.7617 20.3203 31.7617ZM20.3203 29.0781C19 29.0781 17.7617 28.832 16.6055 28.3398C15.457 27.8477 14.4453 27.168 13.5703 26.3008C12.6953 25.4258 12.0117 24.4141 11.5195 23.2656C11.0352 22.1094 10.793 20.8672 10.793 19.5391C10.793 18.2188 11.0352 16.9844 11.5195 15.8359C12.0117 14.6797 12.6914 13.6641 13.5586 12.7891C14.4336 11.9141 15.4453 11.2305 16.5938 10.7383C17.75 10.2461 18.9883 10 20.3086 10C21.6367 10 22.875 10.2461 24.0234 10.7383C25.1797 11.2305 26.1914 11.9141 27.0586 12.7891C27.9336 13.6641 28.6172 14.6797 29.1094 15.8359C29.6094 16.9844 29.8594 18.2188 29.8594 19.5391C29.8594 20.8672 29.6133 22.1094 29.1211 23.2656C28.6289 24.4141 27.9453 25.4258 27.0703 26.3008C26.2031 27.168 25.1914 27.8477 24.0352 28.3398C22.8789 28.832 21.6406 29.0781 20.3203 29.0781ZM15.6797 24.707H24.9609C25.5625 24.707 26.0195 24.5508 26.332 24.2383C26.6445 23.9258 26.8008 23.4727 26.8008 22.8789V16.2461C26.8008 15.6523 26.6445 15.2031 26.332 14.8984C26.0195 14.5859 25.5625 14.4297 24.9609 14.4297H15.6797C15.0781 14.4297 14.6211 14.5859 14.3086 14.8984C13.9961 15.2031 13.8398 15.6523 13.8398 16.2461V22.8789C13.8398 23.4727 13.9961 23.9258 14.3086 24.2383C14.6211 24.5508 15.0781 24.707 15.6797 24.707ZM15.8203 23.4062C15.6016 23.4062 15.4336 23.3438 15.3164 23.2188C15.1992 23.0938 15.1406 22.9297 15.1406 22.7266V22.1172L16.5 20.9688C16.7344 20.7578 16.9766 20.6523 17.2266 20.6523C17.4922 20.6523 17.75 20.7617 18 20.9805L19.0312 21.9062L21.5977 19.6211C21.8555 19.3945 22.1406 19.2812 22.4531 19.2812C22.7734 19.2812 23.0547 19.3984 23.2969 19.6328L25.5 21.6367V22.7266C25.5 22.9297 25.4375 23.0938 25.3125 23.2188C25.1875 23.3438 25.0234 23.4062 24.8203 23.4062H15.8203ZM18.1875 19.6562C17.8125 19.6562 17.4883 19.5234 17.2148 19.2578C16.9492 18.9922 16.8164 18.668 16.8164 18.2852C16.8164 17.918 16.9492 17.6016 17.2148 17.3359C17.4883 17.0625 17.8125 16.9258 18.1875 16.9258C18.5625 16.9258 18.8828 17.0625 19.1484 17.3359C19.4141 17.6016 19.5469 17.918 19.5469 18.2852C19.5469 18.668 19.4141 18.9922 19.1484 19.2578C18.8828 19.5234 18.5625 19.6562 18.1875 19.6562Z" fill="black"/>
</svg>
