<?xml version="1.0" encoding="UTF-8"?>
<svg width="40px" height="39px" viewBox="0 0 40 39" version="1.1" xmlns="http://www.w3.org/2000/svg" xmlns:xlink="http://www.w3.org/1999/xlink">
    <title>Group 3</title>
    <g id="Page-1" stroke="none" stroke-width="1" fill="none" fill-rule="evenodd">
        <g id="Simulator-Screen-Copy-2" transform="translate(-226.000000, -634.000000)">
            <g id="Group-3" transform="translate(226.000000, 634.000000)">
                <ellipse id="Oval" stroke="#0A0A0A" fill="#91C0EE" cx="20" cy="19.5" rx="19.5" ry="19"></ellipse>
                <g id="Shutter-Speed-Icon" transform="translate(5.000000, 5.000000)">
                    <path d="M12.8063045,29.1386637 C4.7863045,28.1306637 -0.893695501,20.8176637 0.116304499,12.8026637 C1.1263045,4.78866369 8.4363045,-0.89133631 16.4563045,0.11566369 C24.4663045,1.12366369 30.1463045,8.43766369 29.1363045,16.4516637 C28.1363045,24.4666637 20.8163045,30.1466637 12.8063045,29.1386637 Z" id="Fill-685" fill="#000000"></path>
                    <path d="M15.3463045,15.1636637 C16.1063045,15.3536637 16.8663045,15.5126637 17.6263045,15.6086637 C21.5863045,16.1066637 25.5363045,15.3156637 29.2163045,13.3036637 C29.1963045,13.0636637 29.1663045,12.8256637 29.1363045,12.5896637 C24.8663045,14.9946637 20.2163045,15.6696637 15.6263045,14.5536637 C19.5863045,12.5436637 22.4063045,9.18966369 23.8363045,4.80166369 C23.9663045,4.39366369 24.0863045,3.97666369 24.1963045,3.55466369 C24.0063045,3.39066369 23.8063045,3.23166369 23.6063045,3.07666369 C23.4863045,3.59166369 23.3563045,4.09966369 23.1963045,4.59266369 C21.8163045,8.83466369 19.0763045,12.0676637 15.2463045,13.9906637 C17.1163045,8.43866369 15.5063045,3.54066369 13.7663045,0.35366369 C13.7063045,0.25266369 13.6463045,0.15566369 13.5863045,0.0546636897 C13.3363045,0.0726636897 13.0963045,0.0966636897 12.8463045,0.12766369 C12.9563045,0.31066369 13.0663045,0.49166369 13.1663045,0.67766369 C14.8463045,3.74866369 16.4063045,8.46866369 14.5963045,13.8046637 C11.7563045,8.55466369 7.0763045,6.23866369 3.4763045,5.22266369 C3.3163045,5.40866369 3.1663045,5.59966369 3.0163045,5.79466369 C6.5263045,6.73366369 11.1963045,8.94766369 13.9963045,14.1256637 C9.2463045,12.9526637 4.3863045,13.5146637 0.0663044995,15.7176637 C0.0863044995,15.9606637 0.106304499,16.2026637 0.136304499,16.4436637 C4.3563045,14.2176637 9.1363045,13.6296637 13.8163045,14.7736637 C9.6463045,17.4496637 6.7363045,21.2646637 5.3263045,25.8996637 C5.5063045,26.0526637 5.6963045,26.2026637 5.8863045,26.3466637 C7.2263045,21.7886637 10.0363045,18.0336637 14.0863045,15.4006637 C12.8563045,19.9636637 13.4663045,24.8106637 15.8463045,29.2216637 C16.0863045,29.2016637 16.3363045,29.1756637 16.5763045,29.1436637 C14.1563045,24.7956637 13.5163045,19.9986637 14.7563045,15.4966637 C17.7563045,20.5826637 22.4363045,22.8446637 26.0263045,23.8466637 C26.1763045,23.6586637 26.3263045,23.4666637 26.4663045,23.2706637 C22.9763045,22.3406637 18.3063045,20.1756637 15.3463045,15.1636637" id="Fill-686" fill="#FFFFFE"></path>
                    <polyline id="Fill-687" fill="#91C0EE" points="15.3063045 12.5006637 16.5063045 13.5186637 16.5463045 13.5546637 16.5963045 15.1356637 15.5763045 16.3356637 13.9563045 16.4606637 12.7763045 15.4546637 12.6363045 13.8386637 13.6663045 12.6196637 15.3063045 12.5006637"></polyline>
                </g>
            </g>
        </g>
    </g>
</svg>