<?xml version="1.0" encoding="UTF-8"?>
<svg width="326px" height="266px" viewBox="0 0 326 266" version="1.1" xmlns="http://www.w3.org/2000/svg" xmlns:xlink="http://www.w3.org/1999/xlink">
    <title>Group 23</title>
    <g id="Page-1" stroke="none" stroke-width="1" fill="none" fill-rule="evenodd">
        <g id="ISO--Learning-screen-" transform="translate(-51.000000, -109.000000)">
            <g id="Group-23" transform="translate(51.000000, 109.000000)">
                <g id="Group-2" transform="translate(162.659174, 132.514004) rotate(-17.000000) translate(-162.659174, -132.514004) translate(21.762790, 37.021550)">
                    <path d="M250.89418,79.1036442 L219.92518,179.499644 C217.28318,188.060644 208.11918,192.903644 199.55818,190.264644 L11.4841803,132.246644 C2.92318027,129.605644 -1.91981973,120.440644 0.721180272,111.879644 L31.6911803,11.4836442 C34.3311803,2.9246442 43.4951803,-1.9193558 52.0571803,0.720644195 L240.13018,58.7366442 C248.69218,61.3776442 253.53518,70.5436442 250.89418,79.1036442" id="Fill-31" fill="#91C0EE"></path>
                    <path d="M250.89418,79.1036442 L242.33318,106.856644 L23.1281803,39.2376442 L31.6911803,11.4836442 C34.3311803,2.9246442 43.4951803,-1.9193558 52.0571803,0.720644195 L240.13018,58.7366442 C248.69218,61.3776442 253.53518,70.5436442 250.89418,79.1036442" id="Fill-32" fill="#FFFFFE"></path>
                    <path d="M223.79718,43.2016442 L220.84118,52.7906442 L201.12018,46.7056442 L204.07718,37.1166442 C204.34218,36.2626442 205.25818,35.7776442 206.11418,36.0416442 L222.72318,41.1646442 C223.57918,41.4286442 224.06218,42.3456442 223.79718,43.2016442" id="Fill-33" fill="#190E24"></path>
                    <path d="M94.8411803,30.6266442 L90.8881803,43.4366442 C90.0971803,46.0036442 87.3481803,47.4576442 84.7801803,46.6646442 L54.1151803,37.2056442 C51.5481803,36.4146442 50.0941803,33.6626442 50.8871803,31.0956442 L54.8391803,18.2856442 C55.6301803,15.7176442 58.3811803,14.2636442 60.9491803,15.0556442 L91.6121803,24.5166442 C94.1791803,25.3076442 95.6331803,28.0566442 94.8411803,30.6266442 Z" id="Fill-34" fill="#AFBBC8"></path>
                    <path d="M86.2111803,46.8806548 C85.7371803,46.8816442 85.2551803,46.8116442 84.7801803,46.6646442 L54.1151803,37.2056442 C52.0241803,36.5606442 50.6721803,34.6176442 50.6701803,32.5306442 C50.6721803,34.6166442 52.0241803,36.5616442 54.1151803,37.2056442 L84.7801803,46.6646442 C85.2551803,46.8116442 85.7371803,46.8806548 86.2111803,46.8806548 C88.2991803,46.8806548 90.2431803,45.5286442 90.8881803,43.4366442 L92.0121803,39.7936442 C92.0181803,39.7726442 92.0251803,39.7516442 92.0321803,39.7306442 L90.8881803,43.4366442 C90.2431803,45.5286442 88.2991803,46.8806548 86.2111803,46.8806548 M50.8871803,31.0956442 L52.0291803,27.3916442 C52.0201803,27.4196442 52.0111803,27.4476442 52.0031803,27.4766442 L50.8871803,31.0956442" id="Fill-35" fill="#ABCECD"></path>
                    <path d="M84.7801803,46.6646442 L54.1151803,37.2056442 C52.0241803,36.5616442 50.6721803,34.6166442 50.6701803,32.5306442 C50.6701803,32.0546442 50.7401803,31.5726442 50.8871803,31.0956442 L52.0031803,27.4766442 C51.2701803,30.0206442 52.7191803,32.7176442 55.2581803,33.5016442 L85.9211803,42.9606442 C86.3961803,43.1066442 86.8781803,43.1766442 87.3521803,43.1766442 C89.4191803,43.1766442 91.3471803,41.8506442 92.0121803,39.7936442 L90.8881803,43.4366442 C90.2431803,45.5286442 88.2991803,46.8806442 86.2111803,46.8806442 C85.7371803,46.8806442 85.2551803,46.8116442 84.7801803,46.6646442 Z" id="Fill-36" fill="#818D99"></path>
                    <path d="M60.7071803,15.8346442 C58.5621803,15.1736442 56.2781803,16.3796442 55.6161803,18.5276442 L51.6631803,31.3376442 C51.0021803,33.4796442 52.2101803,35.7656442 54.3561803,36.4276442 L85.0191803,45.8866442 C87.1641803,46.5486442 89.4501803,45.3406442 90.1121803,43.1956442 L94.0631803,30.3866442 C94.7241803,28.2396442 93.5181803,25.9556442 91.3721803,25.2936442 L60.7071803,15.8346442 Z M84.5401803,47.4426442 L53.8751803,37.9836442 C50.8721803,37.0566442 49.1811803,33.8596442 50.1071803,30.8566442 L54.0591803,18.0466442 C54.9861803,15.0416442 58.1841803,13.3516442 61.1871803,14.2776442 L91.8521803,23.7386442 C94.8551803,24.6636442 96.5461803,27.8616442 95.6191803,30.8656442 L91.6661803,43.6756442 C90.7401803,46.6786442 87.5431803,48.3706442 84.5401803,47.4426442 L84.5401803,47.4426442 Z" id="Fill-37" fill="#190E24"></path>
                    <path d="M80.1121803,25.5436442 L64.3861803,33.8556442 C63.8621803,34.1316442 63.2101803,33.9306442 62.9321803,33.4046442 C62.6541803,32.8786442 62.8541803,32.2266442 63.3781803,31.9486442 L79.1061803,23.6396442 C79.6321803,23.3616442 80.2821803,23.5616442 80.5611803,24.0876442 C80.8391803,24.6156442 80.6391803,25.2656442 80.1121803,25.5436442" id="Fill-38" fill="#FFFFFE"></path>
                    <path d="M82.3461803,29.7716442 L66.6211803,38.0816442 C66.0961803,38.3586442 65.4451803,38.1586442 65.1671803,37.6326442 C64.8881803,37.1056442 65.0891803,36.4556442 65.6141803,36.1766442 L81.3411803,27.8656442 C81.8661803,27.5886442 82.5181803,27.7906442 82.7951803,28.3146442 C83.0731803,28.8426442 82.8721803,29.4916442 82.3461803,29.7716442" id="Fill-39" fill="#FFFFFE"></path>
                    <path d="M104.57818,47.5496442 C101.09618,46.4736442 99.1441803,42.7816442 100.21918,39.2986442 C101.29418,35.8156442 104.98718,33.8626442 108.46818,34.9376442 C111.95218,36.0106442 113.90418,39.7066442 112.83018,43.1876442 C111.75618,46.6706442 108.06218,48.6246442 104.57818,47.5496442 Z" id="Fill-41" fill="#AFBBC8"></path>
                    <path d="M260.32918,68.7856442 C259.37618,68.7856442 258.49518,68.1656442 258.20418,67.2056442 C257.85018,66.0306442 258.51518,64.7926442 259.69018,64.4396442 L274.43718,59.9926442 C275.61118,59.6446442 276.84818,60.3026442 277.20318,61.4786442 C277.55718,62.6516442 276.89218,63.8906442 275.71818,64.2446442 L260.97118,68.6916442 C260.75818,68.7546442 260.54218,68.7856442 260.32918,68.7856442" id="Fill-71" fill="#190E24"></path>
                    <path d="M256.89518,57.3886442 C256.29218,57.3886442 255.69318,57.1446442 255.25518,56.6646442 C254.42818,55.7596442 254.49118,54.3546442 255.39718,53.5286442 L267.20718,42.7396442 C268.11418,41.9126442 269.51818,41.9776442 270.34418,42.8826442 C271.17218,43.7876442 271.10818,45.1916442 270.20218,46.0186442 L258.39118,56.8066442 C257.96618,57.1956442 257.42918,57.3886442 256.89518,57.3886442" id="Fill-72" fill="#190E24"></path>
                    <path d="M279.57518,82.6436442 C279.46118,82.6436442 279.34618,82.6346442 279.23018,82.6166442 L263.42518,80.1556442 C262.21418,79.9666442 261.38518,78.8316442 261.57318,77.6206442 C261.76218,76.4076442 262.90018,75.5846442 264.10818,75.7686442 L279.91418,78.2296442 C281.12518,78.4186442 281.95418,79.5536442 281.76618,80.7636442 C281.59518,81.8596442 280.65018,82.6436442 279.57518,82.6436442" id="Fill-73" fill="#190E24"></path>
                </g>
                <circle id="Oval" fill="#000000" cx="149.404509" cy="145.394225" r="48"></circle>
                <text id="ISO" font-family="SFPro-Heavy, SF Pro" font-size="40" font-weight="600" fill="#FFFFFF">
                    <tspan x="114.424821" y="159">ISO</tspan>
                </text>
            </g>
        </g>
    </g>
</svg>