<?xml version="1.0" encoding="UTF-8"?>
<svg width="195px" height="176px" viewBox="0 0 195 176" version="1.1" xmlns="http://www.w3.org/2000/svg" xmlns:xlink="http://www.w3.org/1999/xlink">
    <title>Group 22</title>
    <defs>
        <path d="M0,28.4418542 L48,28.4418542 L48,15.5911066 L0,15.5911066 L0,28.4418542 Z M17.4951651,44 L30.4954985,44 L30.4954985,0 L17.4951651,0 L17.4951651,44 Z" id="path-1"></path>
        <polygon id="path-2" points="0 15 33 15 33 0 0 0"></polygon>
    </defs>
    <g id="Page-1" stroke="none" stroke-width="1" fill="none" fill-rule="evenodd">
        <g id="EV---Learning-screen--Copy" transform="translate(-97.000000, -161.000000)">
            <g id="Group-22" transform="translate(97.000000, 161.000000)">
                <g id="EV-Icon">
                    <rect id="Rectangle" fill="#D8D8D8" x="0" y="0" width="194" height="175" rx="10"></rect>
                    <path d="M189.99482,2.06181251 C192.66494,3.60035708 194,7.73402288 194,14.4628099 C194,21.191597 194,69.883057 194,160.53719 C194,163.700343 194.308166,166.965046 193.042225,169.232515 C191.776285,171.499984 191.776285,171.499984 189.675065,173.260135 C187.573845,175.020285 184.234317,175.038189 179.522388,175 C75.1246834,175 19.6541471,175.037983 13.1107791,175.113949 C3.29572706,175.227899 3.03316144,172.442615 1.68274649,170.516229" id="Path" fill="#91C0EE"></path>
                </g>
                <g id="+" transform="translate(21.000000, 36.000000)" fill-rule="nonzero">
                    <g id="Shape">
                        <use fill="#C1C1C1" xlink:href="#path-1"></use>
                        <use fill="#000000" xlink:href="#path-1"></use>
                    </g>
                </g>
                <g id="-" transform="translate(131.000000, 114.000000)" fill="#FFFFFF" fill-rule="nonzero">
                    <g id="Path">
                        <use xlink:href="#path-2"></use>
                        <use xlink:href="#path-2"></use>
                    </g>
                </g>
            </g>
        </g>
    </g>
</svg>