<?xml version="1.0" encoding="UTF-8"?>
<svg width="188px" height="185px" viewBox="0 0 188 185" version="1.1" xmlns="http://www.w3.org/2000/svg" xmlns:xlink="http://www.w3.org/1999/xlink">
    <title>Group</title>
    <g id="Page-1" stroke="none" stroke-width="1" fill="none" fill-rule="evenodd">
        <g id="Exposure-Triangle---Learning-screen-" transform="translate(-101.000000, -156.000000)">
            <g id="Group" transform="translate(101.000000, 156.000000)">
                <path d="M93.5,6 C85.6849703,6 78.6868591,10.0354597 74.7793443,16.7867542 L8.9223725,130.633846 C7.01052348,133.938799 6,137.662026 6,141.397036 C6,153.309006 15.7091709,163 27.6424379,163 L159.356972,163 C171.291419,163 181,153.309006 181,141.397036 C181,137.662026 179.989477,133.938799 178.077627,130.633846 L112.220065,16.7867542 C108.313141,10.0354597 101.31503,6 93.5,6 Z M28.1742181,170 C12.6384274,170 0,157.380144 0,141.87474 C0,136.998753 1.31328258,132.146321 3.79766395,127.853332 L69.6228559,14.0508522 C74.7102034,5.25287516 83.8235349,0 94,0 C104.176465,0 113.289797,5.25287516 118.377734,14.0508522 L184.202926,127.853332 C186.686717,132.146321 188,136.998753 188,141.87474 C188,157.380144 175.360983,170 159.825192,170 L28.1742181,170 Z" id="Fill-138" fill="#FFFFFE"></path>
                <g id="Aperture" transform="translate(27.260204, 65.116656) rotate(-60.000000) translate(-27.260204, -65.116656) translate(3.790569, 60.696070)" fill="#C1C1C1" fill-rule="nonzero">
                    <path d="M2.87221384e-12,7.04589844 L1.88491821,7.04589844 L3.41995239,1.55319214 L3.93409729,1.55319214 L3.93409729,-7.56914905e-14 L2.36930847,-7.56914905e-14 L2.87221384e-12,7.04589844 Z M1.38267517,5.50094604 L5.49499512,5.50094604 L5.08674622,4.2073822 L1.79084778,4.2073822 L1.38267517,5.50094604 Z M5.04806519,7.04589844 L6.9329834,7.04589844 L4.56367493,-7.56914905e-14 L3.51303101,-7.56914905e-14 L3.51303101,1.55319214 L5.04806519,7.04589844 Z" id="Shape"></path>
                    <path d="M8.06952953,8.84117126 L9.8026228,8.84117126 L9.8026228,6.17088318 L9.89570141,6.17088318 C9.98338858,6.36965434 10.1044289,6.54052734 10.2588224,6.6835022 C10.413216,6.82647705 10.5945285,6.93621318 10.8027601,7.01271057 C11.0109917,7.08920797 11.2392886,7.12745667 11.4876509,7.12745667 C11.9460758,7.12745667 12.3367516,7.01764425 12.6596785,6.79801941 C12.9826053,6.57839457 13.2295942,6.26014709 13.4006453,5.84327698 C13.5716963,5.42640686 13.6572218,4.92291768 13.6572218,4.33280945 L13.6572218,4.32304382 C13.6572218,3.73624166 13.5698271,3.23502858 13.3950377,2.8194046 C13.2202482,2.40378062 12.9713901,2.08471934 12.6484632,1.86222076 C12.3255364,1.63972219 11.938599,1.5284729 11.4876509,1.5284729 C11.2310489,1.5284729 10.9979582,1.56466166 10.7883787,1.63703918 C10.5787992,1.70941671 10.39886,1.81290944 10.2485609,1.9475174 C10.0982618,2.08212535 9.980642,2.24583944 9.89570141,2.43865967 L9.8026228,2.43865967 L9.8026228,1.61003113 L8.06952953,1.61003113 L8.06952953,8.84117126 Z M10.846858,5.71662903 C10.6351678,5.71662903 10.4499515,5.66121419 10.2912092,5.55038452 C10.132467,5.43955485 10.0093412,5.27988434 9.92183208,5.07137299 C9.83432293,4.86286163 9.79056835,4.61542765 9.79056835,4.32907104 L9.79056835,4.31930542 C9.79056835,4.02974447 9.83369986,3.78214518 9.91996288,3.57650757 C10.0062259,3.37086995 10.1287285,3.21325938 10.2874708,3.10367584 C10.4462131,2.99409231 10.6326755,2.93930054 10.846858,2.93930054 C11.0618035,2.93930054 11.2476428,2.99452464 11.404376,3.10497284 C11.5611092,3.21542104 11.6824166,3.37408702 11.7682981,3.58097076 C11.8541797,3.78785451 11.8971205,4.0352122 11.8971205,4.32304382 L11.8971205,4.33280945 C11.8971205,4.61743673 11.8541797,4.86338298 11.7682981,5.07064819 C11.6824166,5.27791341 11.5611092,5.43739319 11.404376,5.54908752 C11.2476428,5.66078186 11.0618035,5.71662903 10.846858,5.71662903 Z" id="Shape"></path>
                    <path d="M17.3296279,7.1723938 C17.766131,7.1723938 18.1388396,7.11691538 18.4477538,7.00595856 C18.756668,6.89500173 19.0110066,6.75326029 19.2107695,6.58073425 C19.4105325,6.40820821 19.5650786,6.22564952 19.6744078,6.03305817 C19.7837371,5.84046682 19.8574497,5.66337585 19.8955458,5.50178528 L19.9090499,5.44403076 L18.3257216,5.44776917 L18.3136672,5.46920776 C18.2880324,5.51600138 18.2369663,5.57674408 18.1604689,5.65143585 C18.0839715,5.72612762 17.9803008,5.79291026 17.8494567,5.85178375 C17.7186126,5.91065725 17.5568312,5.94009399 17.3641127,5.94009399 C17.1399611,5.94009399 16.9474969,5.89050293 16.7867202,5.7913208 C16.6259434,5.69213867 16.5026778,5.54859161 16.4169234,5.36067963 C16.331169,5.17276764 16.2882918,4.94651794 16.2882918,4.68193054 L16.2882918,3.98193359 C16.2882918,3.71281942 16.3315505,3.48373413 16.4180678,3.29467773 C16.5045851,3.10562134 16.6244048,2.96188354 16.7775267,2.86346436 C16.9306487,2.76504517 17.1076125,2.71583557 17.3084182,2.71583557 C17.511767,2.71583557 17.6888071,2.76428223 17.8395385,2.86117554 C17.9902699,2.95806885 18.108144,3.10067495 18.1931609,3.28899384 C18.2781778,3.47731272 18.3206862,3.70829264 18.3206862,3.98193359 L18.3206862,4.67445374 L19.122383,3.70994568 L15.4430312,3.70994568 L15.4430312,4.71809387 L19.9425429,4.71809387 L19.9425429,4.21760559 C19.9425429,3.66355896 19.833735,3.181928 19.6161193,2.77271271 C19.3985035,2.36349742 19.0892841,2.04633077 18.6884612,1.82121277 C18.2876382,1.59609477 17.8142979,1.48353577 17.2684401,1.48353577 C16.7208022,1.48353577 16.2464827,1.5984726 15.8454818,1.82834625 C15.4444808,2.05821991 15.1340407,2.38572439 14.9141616,2.81085968 C14.6942824,3.23599497 14.5843428,3.74158223 14.5843428,4.32762146 L14.5843428,4.33250427 C14.5843428,4.92006938 14.6949055,5.42584737 14.9160308,5.84983826 C15.137156,6.27382914 15.4525298,6.60025279 15.862152,6.82910919 C16.2717742,7.0579656 16.7609328,7.1723938 17.3296279,7.1723938 Z" id="Path"></path>
                    <path d="M21.1347911,7.04589844 L22.8678843,7.04589844 L22.8678843,4.17350769 C22.8678843,3.92133077 22.9185562,3.70670319 23.0199,3.52962494 C23.1212438,3.35254669 23.2679698,3.21716309 23.4600779,3.12347412 C23.6521861,3.02978516 23.8833313,2.98294067 24.1535136,2.98294067 C24.2753296,2.98294067 24.3977178,2.99137115 24.5206782,3.00823212 C24.6436386,3.02509308 24.7627716,3.04913839 24.8780772,3.08036804 L24.8780772,1.61506653 C24.7933401,1.58607483 24.7004903,1.56439463 24.599528,1.55002594 C24.4985657,1.53565725 24.3949077,1.5284729 24.2885539,1.5284729 C23.9437561,1.5284729 23.6558991,1.61121368 23.4249827,1.77669525 C23.1940664,1.94217682 23.0393931,2.1757253 22.960963,2.4773407 L22.8678843,2.4773407 L22.8678843,1.61003113 L21.1347911,1.61003113 L21.1347911,7.04589844 Z" id="Path"></path>
                    <path d="M28.4964511,7.05497742 C28.6634331,7.05497742 28.8206749,7.0482254 28.9681765,7.03472137 C29.1156782,7.02121735 29.2351291,7.00546265 29.3265292,6.98745728 L29.3265292,5.74821472 C29.2633578,5.75472514 29.1999321,5.76023102 29.1362521,5.76473236 C29.0725721,5.7692337 28.9908104,5.77148438 28.8909671,5.77148438 C28.6674258,5.77148438 28.5026818,5.72141012 28.3967349,5.6212616 C28.290788,5.52111308 28.2378146,5.36883036 28.2378146,5.16441345 L28.2378146,2.88215637 L29.3265292,2.88215637 L29.3265292,1.61003113 L28.2378146,1.61003113 L28.2378146,0.367507935 L26.4979312,0.367507935 L26.4979312,1.61003113 L25.6715915,1.61003113 L25.6715915,2.88215637 L26.4979312,2.88215637 L26.4979312,5.55519104 C26.4979312,6.08645121 26.6528715,6.46923065 26.962752,6.70352936 C27.2726326,6.93782806 27.7838656,7.05497742 28.4964511,7.05497742 Z" id="Path"></path>
                    <path d="M32.3598555,7.1723938 C32.7422407,7.1723938 33.0681939,7.08403269 33.337715,6.90731049 C33.607236,6.73058828 33.7996239,6.49353027 33.9148787,6.19613647 L34.0079573,6.19613647 L34.0079573,7.04589844 L35.7410505,7.04589844 L35.7410505,1.61003113 L34.0079573,1.61003113 L34.0079573,4.71405029 C34.0079573,4.92019653 33.9729638,5.1023229 33.9029768,5.26042938 C33.8329898,5.41853587 33.7308831,5.54158529 33.5966566,5.62957764 C33.4624301,5.71756999 33.2981184,5.76156616 33.1037214,5.76156616 C32.8110579,5.76156616 32.5977273,5.6728363 32.4637297,5.49537659 C32.3297321,5.31791687 32.2627333,5.0643158 32.2627333,4.73457336 L32.2627333,1.61003113 L30.52964,1.61003113 L30.52964,5.12306213 C30.52964,5.55641174 30.5984317,5.92624664 30.7360151,6.23256683 C30.8735986,6.53888702 31.0781045,6.7721049 31.3495329,6.93222046 C31.6209613,7.09233602 31.9577355,7.1723938 32.3598555,7.1723938 Z" id="Path"></path>
                    <path d="M37.2006977,7.04589844 L38.9337909,7.04589844 L38.9337909,4.17350769 C38.9337909,3.92133077 38.9844628,3.70670319 39.0858066,3.52962494 C39.1871504,3.35254669 39.3338764,3.21716309 39.5259845,3.12347412 C39.7180927,3.02978516 39.9492379,2.98294067 40.2194202,2.98294067 C40.3412362,2.98294067 40.4636244,2.99137115 40.5865848,3.00823212 C40.7095452,3.02509308 40.8286782,3.04913839 40.9439838,3.08036804 L40.9439838,1.61506653 C40.8592467,1.58607483 40.7663969,1.56439463 40.6654346,1.55002594 C40.5644723,1.53565725 40.4608142,1.5284729 40.3544605,1.5284729 C40.0096627,1.5284729 39.7218057,1.61121368 39.4908893,1.77669525 C39.259973,1.94217682 39.1052997,2.1757253 39.0268695,2.4773407 L38.9337909,2.4773407 L38.9337909,1.61003113 L37.2006977,1.61003113 L37.2006977,7.04589844 Z" id="Path"></path>
                    <path d="M44.3263543,7.1723938 C44.7628574,7.1723938 45.135566,7.11691538 45.4444802,7.00595856 C45.7533944,6.89500173 46.0077329,6.75326029 46.2074959,6.58073425 C46.4072589,6.40820821 46.561805,6.22564952 46.6711342,6.03305817 C46.7804635,5.84046682 46.8541761,5.66337585 46.8922722,5.50178528 L46.9057763,5.44403076 L45.322448,5.44776917 L45.3103936,5.46920776 C45.2847588,5.51600138 45.2336927,5.57674408 45.1571953,5.65143585 C45.0806979,5.72612762 44.9770272,5.79291026 44.8461831,5.85178375 C44.7153389,5.91065725 44.5535576,5.94009399 44.3608391,5.94009399 C44.1366875,5.94009399 43.9442233,5.89050293 43.7834466,5.7913208 C43.6226698,5.69213867 43.4994042,5.54859161 43.4136498,5.36067963 C43.3278954,5.17276764 43.2850182,4.94651794 43.2850182,4.68193054 L43.2850182,3.98193359 C43.2850182,3.71281942 43.3282769,3.48373413 43.4147942,3.29467773 C43.5013115,3.10562134 43.6211312,2.96188354 43.7742531,2.86346436 C43.9273751,2.76504517 44.1043389,2.71583557 44.3051445,2.71583557 C44.5084933,2.71583557 44.6855334,2.76428223 44.8362648,2.86117554 C44.9869963,2.95806885 45.1048704,3.10067495 45.1898873,3.28899384 C45.2749042,3.47731272 45.3174126,3.70829264 45.3174126,3.98193359 L45.3174126,4.67445374 L46.1191094,3.70994568 L42.4397576,3.70994568 L42.4397576,4.71809387 L46.9392693,4.71809387 L46.9392693,4.21760559 C46.9392693,3.66355896 46.8304614,3.181928 46.6128457,2.77271271 C46.3952299,2.36349742 46.0860105,2.04633077 45.6851876,1.82121277 C45.2843646,1.59609477 44.8110243,1.48353577 44.2651665,1.48353577 C43.7175286,1.48353577 43.2432091,1.5984726 42.8422081,1.82834625 C42.4412072,2.05821991 42.1307671,2.38572439 41.910888,2.81085968 C41.6910088,3.23599497 41.5810692,3.74158223 41.5810692,4.32762146 L41.5810692,4.33250427 C41.5810692,4.92006938 41.6916319,5.42584737 41.9127572,5.84983826 C42.1338824,6.27382914 42.4492562,6.60025279 42.8588784,6.82910919 C43.2685006,7.0579656 43.7576592,7.1723938 44.3263543,7.1723938 Z" id="Path"></path>
                </g>
                <g id="Shutter-Speed" transform="translate(56.375487, 175.526703)" fill="#C1C1C1" fill-rule="nonzero">
                    <path d="M2.942276,7.66174316 C3.56117249,7.66174316 4.0921402,7.56530762 4.53517914,7.37243652 C4.97821808,7.17956543 5.31776428,6.90678914 5.55381775,6.55410767 C5.78987122,6.20142619 5.90789795,5.7853953 5.90789795,5.30601501 L5.90789795,5.3011322 C5.90789795,4.73091125 5.73192596,4.28555806 5.37998199,3.96507263 C5.02803802,3.6445872 4.47550456,3.41171265 3.72238159,3.26644897 L2.99728394,3.12431335 C2.61606852,3.05010478 2.3400116,2.95378367 2.16911316,2.83535004 C1.99821472,2.7169164 1.9127655,2.55765279 1.9127655,2.3575592 L1.9127655,2.35267639 C1.9127655,2.21260071 1.95386251,2.08955129 2.03605652,1.98352814 C2.11825053,1.87750498 2.2359848,1.7945226 2.38925934,1.73458099 C2.54253387,1.67463938 2.72572835,1.64466858 2.93884277,1.64466858 C3.15495809,1.64390564 3.34575653,1.67449951 3.5112381,1.7364502 C3.67671967,1.79840088 3.80972544,1.88374837 3.91025543,1.99249268 C4.01078542,2.10123698 4.07358805,2.22981771 4.09866333,2.37823486 L4.10842896,2.43423462 L5.76972961,2.43423462 L5.7648468,2.37709045 C5.72954814,1.96062724 5.59968313,1.59145355 5.37525177,1.2695694 C5.15082041,0.947685242 4.83422597,0.695444743 4.42546844,0.5128479 C4.01671092,0.330251058 3.51682027,0.238952637 2.92579651,0.238952637 C2.38588969,0.238952637 1.9058609,0.33232371 1.48571014,0.519065857 C1.06555939,0.705808004 0.734901428,0.968882243 0.493736267,1.30828857 C0.252571106,1.64769491 0.131607056,2.0476532 0.130844116,2.50816345 L0.130844116,2.51304626 C0.130844116,3.06154887 0.300521851,3.51060232 0.639877319,3.8602066 C0.979232788,4.20981089 1.52081807,4.45772807 2.26463318,4.60395813 L2.98973083,4.74494934 C3.40243022,4.8249054 3.69497935,4.91881053 3.86737823,5.02666473 C4.03977712,5.13451894 4.12597656,5.28752645 4.12597656,5.48568726 L4.12597656,5.49057007 C4.12597656,5.63832601 4.07807668,5.7702891 3.98227692,5.88645935 C3.88647715,6.0026296 3.75274658,6.09326681 3.58108521,6.15837097 C3.40942383,6.22347514 3.20650736,6.25602722 2.97233582,6.25602722 C2.73363749,6.25602722 2.52281189,6.22379303 2.33985901,6.15932465 C2.15690613,6.09485626 2.01207479,6.00650787 1.90536499,5.89427948 C1.79865519,5.78205109 1.73639933,5.65366109 1.71859741,5.5091095 L1.7137146,5.46661377 L0,5.46661377 L0.0048828125,5.55404663 C0.0307210286,5.98978678 0.165112813,6.36493683 0.408058167,6.67949677 C0.65100352,6.9940567 0.987434387,7.23640442 1.41735077,7.40653992 C1.84726715,7.57667542 2.35557556,7.66174316 2.942276,7.66174316 Z" id="Path"></path>
                    <path d="M7.26923317,7.47329712 L9.00232643,7.47329712 L9.00232643,4.36927795 C9.00232643,4.15987651 9.03787941,3.97693634 9.10898536,3.82045746 C9.18009132,3.66397858 9.28200732,3.54174296 9.41473335,3.45375061 C9.54745938,3.36575826 9.70761309,3.32176208 9.89519447,3.32176208 C10.187858,3.32176208 10.4030833,3.41030121 10.5408701,3.58737946 C10.678657,3.7644577 10.7475504,4.01824951 10.7475504,4.34875488 L10.7475504,7.47329712 L12.4806437,7.47329712 L12.4806437,3.96026611 C12.4806437,3.52615356 12.4108983,3.156751 12.2714075,2.85205841 C12.1319168,2.54736582 11.9260757,2.31433868 11.6538844,2.15297699 C11.381693,1.9916153 11.0449188,1.91093445 10.6435618,1.91093445 C10.2611765,1.91093445 9.93716886,1.99948629 9.67153877,2.17658997 C9.40590868,2.35369364 9.21386411,2.59094238 9.09540504,2.88833618 L9.00232643,2.88833618 L9.00232643,0 L7.26923317,0 L7.26923317,7.47329712 Z" id="Path"></path>
                    <path d="M15.67285,7.59979248 C16.0552353,7.59979248 16.3811884,7.51143138 16.6507095,7.33470917 C16.9202306,7.15798696 17.1126185,6.92092896 17.2278732,6.62353516 L17.3209518,6.62353516 L17.3209518,7.47329712 L19.0540451,7.47329712 L19.0540451,2.03742981 L17.3209518,2.03742981 L17.3209518,5.14144897 C17.3209518,5.34759521 17.2859583,5.52972158 17.2159714,5.68782806 C17.1459844,5.84593455 17.0438776,5.96898397 16.9096512,6.05697632 C16.7754247,6.14496867 16.611113,6.18896484 16.416716,6.18896484 C16.1240524,6.18896484 15.9107218,6.10023499 15.7767242,5.92277527 C15.6427266,5.74531555 15.5757278,5.49171448 15.5757278,5.16197205 L15.5757278,2.03742981 L13.8426346,2.03742981 L13.8426346,5.55046082 C13.8426346,5.98381042 13.9114263,6.35364532 14.0490097,6.65996552 C14.1865931,6.96628571 14.391099,7.19950358 14.6625274,7.35961914 C14.9339559,7.5197347 15.2707301,7.59979248 15.67285,7.59979248 Z" id="Path"></path>
                    <path d="M22.937856,7.4823761 C23.104838,7.4823761 23.2620799,7.47562408 23.4095815,7.46212006 C23.5570831,7.44861603 23.676534,7.43286133 23.7679341,7.41485596 L23.7679341,6.1756134 C23.7047628,6.18212382 23.6413371,6.1876297 23.577657,6.19213104 C23.513977,6.19663239 23.4322154,6.19888306 23.332372,6.19888306 C23.1088307,6.19888306 22.9440867,6.1488088 22.8381398,6.04866028 C22.732193,5.94851176 22.6792195,5.79622904 22.6792195,5.59181213 L22.6792195,3.30955505 L23.7679341,3.30955505 L23.7679341,2.03742981 L22.6792195,2.03742981 L22.6792195,0.794906616 L20.9393361,0.794906616 L20.9393361,2.03742981 L20.1129964,2.03742981 L20.1129964,3.30955505 L20.9393361,3.30955505 L20.9393361,5.98258972 C20.9393361,6.51384989 21.0942764,6.89662933 21.404157,7.13092804 C21.7140376,7.36522675 22.2252706,7.4823761 22.937856,7.4823761 Z" id="Path"></path>
                    <path d="M27.5189063,7.4823761 C27.6858883,7.4823761 27.8431301,7.47562408 27.9906318,7.46212006 C28.1381334,7.44861603 28.2575843,7.43286133 28.3489844,7.41485596 L28.3489844,6.1756134 C28.285813,6.18212382 28.2223873,6.1876297 28.1587073,6.19213104 C28.0950273,6.19663239 28.0132656,6.19888306 27.9134223,6.19888306 C27.689881,6.19888306 27.525137,6.1488088 27.4191901,6.04866028 C27.3132433,5.94851176 27.2602698,5.79622904 27.2602698,5.59181213 L27.2602698,3.30955505 L28.3489844,3.30955505 L28.3489844,2.03742981 L27.2602698,2.03742981 L27.2602698,0.794906616 L25.5203864,0.794906616 L25.5203864,2.03742981 L24.6940467,2.03742981 L24.6940467,3.30955505 L25.5203864,3.30955505 L25.5203864,5.98258972 C25.5203864,6.51384989 25.6753267,6.89662933 25.9852073,7.13092804 C26.2950878,7.36522675 26.8063208,7.4823761 27.5189063,7.4823761 Z" id="Path"></path>
                    <path d="M32.061708,7.59979248 C32.4982111,7.59979248 32.8709197,7.54431407 33.1798339,7.43335724 C33.4887481,7.32240041 33.7430867,7.18065898 33.9428496,7.00813293 C34.1426126,6.83560689 34.2971587,6.6530482 34.4064879,6.46045685 C34.5158172,6.2678655 34.5895298,6.09077454 34.6276259,5.92918396 L34.64113,5.87142944 L33.0578017,5.87516785 L33.0457473,5.89660645 C33.0201125,5.94340007 32.9690464,6.00414276 32.892549,6.07883453 C32.8160516,6.15352631 32.7123809,6.22030894 32.5815368,6.27918243 C32.4506927,6.33805593 32.2889113,6.36749268 32.0961928,6.36749268 C31.8720412,6.36749268 31.679577,6.31790161 31.5188003,6.21871948 C31.3580235,6.11953735 31.2347579,5.9759903 31.1490035,5.78807831 C31.0632491,5.60016632 31.0203719,5.37391663 31.0203719,5.10932922 L31.0203719,4.40933228 C31.0203719,4.1402181 31.0636306,3.91113281 31.1501479,3.72207642 C31.2366652,3.53302002 31.3564849,3.38928223 31.5096068,3.29086304 C31.6627288,3.19244385 31.8396926,3.14323425 32.0404983,3.14323425 C32.2438471,3.14323425 32.4208872,3.19168091 32.5716186,3.28857422 C32.72235,3.38546753 32.8402241,3.52807363 32.925241,3.71639252 C33.0102579,3.90471141 33.0527663,4.13569132 33.0527663,4.40933228 L33.0527663,5.10185242 L33.8544631,4.13734436 L30.1751113,4.13734436 L30.1751113,5.14549255 L34.674623,5.14549255 L34.674623,4.64500427 C34.674623,4.09095764 34.5658151,3.60932668 34.3481994,3.20011139 C34.1305836,2.7908961 33.8213642,2.47372945 33.4205413,2.24861145 C33.0197183,2.02349345 32.546378,1.91093445 32.0005202,1.91093445 C31.4528823,1.91093445 30.9785628,2.02587128 30.5775619,2.25574493 C30.1765609,2.48561859 29.8661208,2.81312307 29.6462417,3.23825836 C29.4263625,3.66339366 29.3164229,4.16898092 29.3164229,4.75502014 L29.3164229,4.75990295 C29.3164229,5.34746806 29.4269856,5.85324605 29.6481109,6.27723694 C29.8692362,6.70122782 30.1846099,7.02765147 30.5942321,7.25650787 C31.0038543,7.48536428 31.4930129,7.59979248 32.061708,7.59979248 Z" id="Path"></path>
                    <path d="M35.8668712,7.47329712 L37.5999644,7.47329712 L37.5999644,4.60090637 C37.5999644,4.34872945 37.6506363,4.13410187 37.7519801,3.95702362 C37.8533239,3.77994537 38.0000499,3.64456177 38.192158,3.5508728 C38.3842662,3.45718384 38.6154114,3.41033936 38.8855937,3.41033936 C39.0074097,3.41033936 39.1297979,3.41876984 39.2527583,3.4356308 C39.3757187,3.45249176 39.4948517,3.47653707 39.6101573,3.50776672 L39.6101573,2.04246521 C39.5254202,2.01347351 39.4325704,1.99179331 39.3316081,1.97742462 C39.2306458,1.96305593 39.1269878,1.95587158 39.020634,1.95587158 C38.6758362,1.95587158 38.3879792,2.03861237 38.1570628,2.20409393 C37.9261465,2.3695755 37.7714732,2.60312398 37.6930431,2.90473938 L37.5999644,2.90473938 L37.5999644,2.03742981 L35.8668712,2.03742981 L35.8668712,7.47329712 Z" id="Path"></path>
                    <path d="M45.9853837,7.66174316 C46.6042802,7.66174316 47.1352479,7.56530762 47.5782868,7.37243652 C48.0213258,7.17956543 48.360872,6.90678914 48.5969254,6.55410767 C48.8329789,6.20142619 48.9510056,5.7853953 48.9510056,5.30601501 L48.9510056,5.3011322 C48.9510056,4.73091125 48.7750337,4.28555806 48.4230897,3.96507263 C48.0711457,3.6445872 47.5186122,3.41171265 46.7654893,3.26644897 L46.0403916,3.12431335 C45.6591762,3.05010478 45.3831193,2.95378367 45.2122208,2.83535004 C45.0413224,2.7169164 44.9558732,2.55765279 44.9558732,2.3575592 L44.9558732,2.35267639 C44.9558732,2.21260071 44.9969702,2.08955129 45.0791642,1.98352814 C45.1613582,1.87750498 45.2790925,1.7945226 45.432367,1.73458099 C45.5856416,1.67463938 45.768836,1.64466858 45.9819505,1.64466858 C46.1980658,1.64390564 46.3888642,1.67449951 46.5543458,1.7364502 C46.7198274,1.79840088 46.8528331,1.88374837 46.9533631,1.99249268 C47.0538931,2.10123698 47.1166957,2.22981771 47.141771,2.37823486 L47.1515366,2.43423462 L48.8128373,2.43423462 L48.8079545,2.37709045 C48.7726558,1.96062724 48.6427908,1.59145355 48.4183595,1.2695694 C48.1939281,0.947685242 47.8773337,0.695444743 47.4685761,0.5128479 C47.0598186,0.330251058 46.559928,0.238952637 45.9689042,0.238952637 C45.4289974,0.238952637 44.9489686,0.33232371 44.5288178,0.519065857 C44.1086671,0.705808004 43.7780091,0.968882243 43.536844,1.30828857 C43.2956788,1.64769491 43.1747147,2.0476532 43.1739518,2.50816345 L43.1739518,2.51304626 C43.1739518,3.06154887 43.3436295,3.51060232 43.682985,3.8602066 C44.0223405,4.20981089 44.5639258,4.45772807 45.3077409,4.60395813 L46.0328385,4.74494934 C46.4455379,4.8249054 46.738087,4.91881053 46.9104859,5.02666473 C47.0828848,5.13451894 47.1690843,5.28752645 47.1690843,5.48568726 L47.1690843,5.49057007 C47.1690843,5.63832601 47.1211844,5.7702891 47.0253846,5.88645935 C46.9295848,6.0026296 46.7958543,6.09326681 46.6241929,6.15837097 C46.4525315,6.22347514 46.2496151,6.25602722 46.0154435,6.25602722 C45.7767452,6.25602722 45.5659196,6.22379303 45.3829667,6.15932465 C45.2000138,6.09485626 45.0551825,6.00650787 44.9484727,5.89427948 C44.8417629,5.78205109 44.779507,5.65366109 44.7617051,5.5091095 L44.7568223,5.46661377 L43.0431077,5.46661377 L43.0479905,5.55404663 C43.0738287,5.98978678 43.2082205,6.36493683 43.4511659,6.67949677 C43.6941112,6.9940567 44.0305421,7.23640442 44.4604585,7.40653992 C44.8903748,7.57667542 45.3986832,7.66174316 45.9853837,7.66174316 Z" id="Path"></path>
                    <path d="M50.2635127,9.26856995 L51.996606,9.26856995 L51.996606,6.59828186 L52.0896846,6.59828186 C52.1773718,6.79705302 52.2984121,6.96792603 52.4528056,7.11090088 C52.6071992,7.25387573 52.7885117,7.36361186 52.9967433,7.44010925 C53.2049749,7.51660665 53.4332718,7.55485535 53.6816341,7.55485535 C54.140059,7.55485535 54.5307348,7.44504293 54.8536617,7.22541809 C55.1765885,7.00579325 55.4235774,6.68754578 55.5946285,6.27067566 C55.7656795,5.85380554 55.851205,5.35031637 55.851205,4.76020813 L55.851205,4.7504425 C55.851205,4.16364034 55.7638103,3.66242727 55.5890208,3.24680328 C55.4142314,2.8311793 55.1653733,2.51211802 54.8424464,2.28961945 C54.5195196,2.06712087 54.1325821,1.95587158 53.6816341,1.95587158 C53.4250321,1.95587158 53.1919414,1.99206034 52.9823619,2.06443787 C52.7727824,2.13681539 52.5928432,2.24030813 52.4425441,2.37491608 C52.292245,2.50952403 52.1746252,2.67323812 52.0896846,2.86605835 L51.996606,2.86605835 L51.996606,2.03742981 L50.2635127,2.03742981 L50.2635127,9.26856995 Z M53.0408412,6.14402771 C52.829151,6.14402771 52.6439347,6.08861287 52.4851924,5.9777832 C52.3264501,5.86695353 52.2033244,5.70728302 52.1158153,5.49877167 C52.0283061,5.29026031 51.9845515,5.04282633 51.9845515,4.75646973 L51.9845515,4.7467041 C51.9845515,4.45714315 52.0276831,4.20954386 52.1139461,4.00390625 C52.2002091,3.79826864 52.3227117,3.64065806 52.481454,3.53107452 C52.6401963,3.42149099 52.8266587,3.36669922 53.0408412,3.36669922 C53.2557867,3.36669922 53.441626,3.42192332 53.5983592,3.53237152 C53.7550924,3.64281972 53.8763998,3.8014857 53.9622813,4.00836945 C54.0481629,4.21525319 54.0911037,4.46261088 54.0911037,4.7504425 L54.0911037,4.76020813 C54.0911037,5.04483541 54.0481629,5.29078166 53.9622813,5.49804688 C53.8763998,5.70531209 53.7550924,5.86479187 53.5983592,5.97648621 C53.441626,6.08818054 53.2557867,6.14402771 53.0408412,6.14402771 Z" id="Shape"></path>
                    <path d="M59.5236111,7.59979248 C59.9601142,7.59979248 60.3328228,7.54431407 60.641737,7.43335724 C60.9506512,7.32240041 61.2049898,7.18065898 61.4047527,7.00813293 C61.6045157,6.83560689 61.7590618,6.6530482 61.868391,6.46045685 C61.9777203,6.2678655 62.0514329,6.09077454 62.089529,5.92918396 L62.1030331,5.87142944 L60.5197048,5.87516785 L60.5076504,5.89660645 C60.4820156,5.94340007 60.4309495,6.00414276 60.3544521,6.07883453 C60.2779547,6.15352631 60.174284,6.22030894 60.0434399,6.27918243 C59.9125957,6.33805593 59.7508144,6.36749268 59.5580959,6.36749268 C59.3339443,6.36749268 59.1414801,6.31790161 58.9807034,6.21871948 C58.8199266,6.11953735 58.696661,5.9759903 58.6109066,5.78807831 C58.5251522,5.60016632 58.482275,5.37391663 58.482275,5.10932922 L58.482275,4.40933228 C58.482275,4.1402181 58.5255337,3.91113281 58.612051,3.72207642 C58.6985683,3.53302002 58.818388,3.38928223 58.9715099,3.29086304 C59.1246319,3.19244385 59.3015957,3.14323425 59.5024014,3.14323425 C59.7057501,3.14323425 59.8827902,3.19168091 60.0335217,3.28857422 C60.1842531,3.38546753 60.3021272,3.52807363 60.3871441,3.71639252 C60.472161,3.90471141 60.5146694,4.13569132 60.5146694,4.40933228 L60.5146694,5.10185242 L61.3163662,4.13734436 L57.6370144,4.13734436 L57.6370144,5.14549255 L62.1365261,5.14549255 L62.1365261,4.64500427 C62.1365261,4.09095764 62.0277182,3.60932668 61.8101025,3.20011139 C61.5924867,2.7908961 61.2832673,2.47372945 60.8824444,2.24861145 C60.4816214,2.02349345 60.0082811,1.91093445 59.4624233,1.91093445 C58.9147854,1.91093445 58.4404659,2.02587128 58.039465,2.25574493 C57.638464,2.48561859 57.3280239,2.81312307 57.1081448,3.23825836 C56.8882656,3.66339366 56.778326,4.16898092 56.778326,4.75502014 L56.778326,4.75990295 C56.778326,5.34746806 56.8888887,5.85324605 57.110014,6.27723694 C57.3311392,6.70122782 57.646513,7.02765147 58.0561352,7.25650787 C58.4657574,7.48536428 58.954916,7.59979248 59.5236111,7.59979248 Z" id="Path"></path>
                    <path d="M65.806649,7.59979248 C66.2431521,7.59979248 66.6158608,7.54431407 66.9247749,7.43335724 C67.2336891,7.32240041 67.4880277,7.18065898 67.6877907,7.00813293 C67.8875537,6.83560689 68.0420998,6.6530482 68.151429,6.46045685 C68.2607582,6.2678655 68.3344709,6.09077454 68.372567,5.92918396 L68.386071,5.87142944 L66.8027428,5.87516785 L66.7906883,5.89660645 C66.7650536,5.94340007 66.7139875,6.00414276 66.6374901,6.07883453 C66.5609927,6.15352631 66.4573219,6.22030894 66.3264778,6.27918243 C66.1956337,6.33805593 66.0338524,6.36749268 65.8411339,6.36749268 C65.6169823,6.36749268 65.4245181,6.31790161 65.2637413,6.21871948 C65.1029645,6.11953735 64.979699,5.9759903 64.8939446,5.78807831 C64.8081902,5.60016632 64.765313,5.37391663 64.765313,5.10932922 L64.765313,4.40933228 C64.765313,4.1402181 64.8085716,3.91113281 64.895089,3.72207642 C64.9816063,3.53302002 65.1014259,3.38928223 65.2545479,3.29086304 C65.4076698,3.19244385 65.5846336,3.14323425 65.7854393,3.14323425 C65.9887881,3.14323425 66.1658282,3.19168091 66.3165596,3.28857422 C66.467291,3.38546753 66.5851652,3.52807363 66.670182,3.71639252 C66.7551989,3.90471141 66.7977074,4.13569132 66.7977074,4.40933228 L66.7977074,5.10185242 L67.5994042,4.13734436 L63.9200523,4.13734436 L63.9200523,5.14549255 L68.4195641,5.14549255 L68.4195641,4.64500427 C68.4195641,4.09095764 68.3107562,3.60932668 68.0931404,3.20011139 C67.8755247,2.7908961 67.5663053,2.47372945 67.1654823,2.24861145 C66.7646594,2.02349345 66.291319,1.91093445 65.7454613,1.91093445 C65.1978233,1.91093445 64.7235039,2.02587128 64.3225029,2.25574493 C63.9215019,2.48561859 63.6110619,2.81312307 63.3911827,3.23825836 C63.1713036,3.66339366 63.061364,4.16898092 63.061364,4.75502014 L63.061364,4.75990295 C63.061364,5.34746806 63.1719266,5.85324605 63.3930519,6.27723694 C63.6141772,6.70122782 63.9295509,7.02765147 64.3391731,7.25650787 C64.7487953,7.48536428 65.237954,7.59979248 65.806649,7.59979248 Z" id="Path"></path>
                    <path d="M71.5139729,7.55485535 C71.9018004,7.55485535 72.2323185,7.47515361 72.5055271,7.31575012 C72.7787358,7.15634664 72.9788675,6.93265279 73.1059223,6.64466858 L73.1990772,6.64466858 L73.1990772,7.47329712 L74.9320942,7.47329712 L74.9320942,0 L73.1990772,0 L73.1990772,2.91244507 L73.1059223,2.91244507 C72.9752054,2.61250814 72.7706486,2.37809499 72.492252,2.20920563 C72.2138554,2.04031626 71.8877623,1.95587158 71.5139729,1.95587158 C71.055548,1.95587158 70.6648721,2.065684 70.3419453,2.28530884 C70.0190185,2.50493368 69.7720295,2.82318115 69.6009785,3.24005127 C69.4299275,3.65692139 69.344402,4.16038513 69.344402,4.7504425 L69.344402,4.76020813 C69.344402,5.34451803 69.4317967,5.84531148 69.6065861,6.2625885 C69.7813755,6.67986552 70.0310475,6.99956258 70.3556019,7.22167969 C70.6801564,7.44379679 71.06628,7.55485535 71.5139729,7.55485535 Z M72.1547657,6.14402771 C71.9405832,6.14402771 71.7549346,6.08880361 71.5978199,5.97835541 C71.4407053,5.86790721 71.3192072,5.7090505 71.2333256,5.50178528 C71.147444,5.29452006 71.1045033,5.04732768 71.1045033,4.76020813 L71.1045033,4.7504425 C71.1045033,4.46510315 71.147444,4.2189916 71.2333256,4.01210785 C71.3192072,3.8052241 71.4413283,3.64593506 71.5996891,3.53424072 C71.7580499,3.42254639 71.9430755,3.36669922 72.1547657,3.36669922 C72.3689483,3.36669922 72.5547876,3.42211405 72.7122837,3.53294373 C72.8697799,3.6437734 72.9922825,3.80263011 73.0797917,4.00951385 C73.1673008,4.2163976 73.2110554,4.46464539 73.2110554,4.7542572 L73.2110554,4.76402283 C73.2110554,5.05032857 73.1679239,5.29711405 73.0816609,5.50437927 C72.9953978,5.71164449 72.8735183,5.87006887 72.7160221,5.9796524 C72.558526,6.08923594 72.3714405,6.14402771 72.1547657,6.14402771 Z" id="Shape"></path>
                </g>
                <g id="ISO" transform="translate(160.178650, 64.786350) rotate(60.000000) translate(-160.178650, -64.786350) translate(151.550907, 61.074955)" fill="#C1C1C1" fill-rule="nonzero">
                    <polygon id="Path" points="9.14872449e-13 7.23434448 1.79229736 7.23434448 1.79229736 0.188446045 9.14872449e-13 0.188446045"></polygon>
                    <path d="M6.20314121,7.42279053 C6.8220377,7.42279053 7.35300541,7.32635498 7.79604435,7.13348389 C8.23908329,6.94061279 8.57862949,6.66783651 8.81468296,6.31515503 C9.05073643,5.96247355 9.16876316,5.54644267 9.16876316,5.06706238 L9.16876316,5.06217957 C9.16876316,4.49195862 8.99279118,4.04660543 8.64084721,3.72612 C8.28890324,3.40563456 7.73636977,3.17276001 6.9832468,3.02749634 L6.25814915,2.88536072 C5.87693373,2.81115214 5.60087681,2.71483103 5.42997837,2.5963974 C5.25907993,2.47796377 5.17363071,2.31870015 5.17363071,2.11860657 L5.17363071,2.11372375 C5.17363071,1.97364807 5.21472772,1.85059865 5.29692173,1.7445755 C5.37911574,1.63855235 5.49685001,1.55556997 5.65012455,1.49562836 C5.80339909,1.43568675 5.98659356,1.40571594 6.19970798,1.40571594 C6.4158233,1.404953 6.60662174,1.43554688 6.77210331,1.49749756 C6.93758488,1.55944824 7.07059066,1.64479574 7.17112064,1.75354004 C7.27165063,1.86228434 7.33445326,1.99086507 7.35952854,2.13928223 L7.36929417,2.19528198 L9.03059483,2.19528198 L9.02571201,2.13813782 C8.99041335,1.7216746 8.86054834,1.35250092 8.63611698,1.03061676 C8.41168563,0.708732605 8.09509118,0.456492106 7.68633366,0.273895264 C7.27757613,0.0912984212 6.77768548,8.31033331e-13 6.18666172,8.31033331e-13 C5.6467549,8.31033331e-13 5.16672611,0.0933710734 4.74657536,0.28011322 C4.3264246,0.466855367 3.99576664,0.729929606 3.75460148,1.06933594 C3.51343632,1.40874227 3.39247227,1.80870056 3.39170933,2.26921082 L3.39170933,2.27409363 C3.39170933,2.82259623 3.56138706,3.27164968 3.90074253,3.62125397 C4.240098,3.97085826 4.78168329,4.21877543 5.52549839,4.36500549 L6.25059605,4.5059967 C6.66329543,4.58595276 6.95584456,4.67985789 7.12824345,4.7877121 C7.30064233,4.8955663 7.38684177,5.04857381 7.38684177,5.24673462 L7.38684177,5.25161743 C7.38684177,5.39937337 7.33894189,5.53133647 7.24314213,5.64750671 C7.14734236,5.76367696 7.01361179,5.85431417 6.84195042,5.91941833 C6.67028904,5.9845225 6.46737258,6.01707458 6.23320103,6.01707458 C5.9945027,6.01707458 5.7836771,5.98484039 5.60072422,5.92037201 C5.41777134,5.85590363 5.27294,5.76755524 5.1662302,5.65532684 C5.0595204,5.54309845 4.99726454,5.41470846 4.97946262,5.27015686 L4.97457981,5.22766113 L3.26086521,5.22766113 L3.26574802,5.31509399 C3.29158624,5.75083415 3.42597802,6.12598419 3.66892338,6.44054413 C3.91186873,6.75510406 4.2482996,6.99745178 4.67821598,7.16758728 C5.10813236,7.33772278 5.61644077,7.42279053 6.20314121,7.42279053 Z" id="Path"></path>
                    <path d="M13.7835011,7.42279053 C14.4915089,7.42279053 15.1053064,7.27268219 15.6248936,6.97246552 C16.1444808,6.67224884 16.546143,6.24500275 16.8298802,5.69072723 C17.1136174,5.13645172 17.255486,4.4774882 17.255486,3.71383667 L17.255486,3.70407104 C17.255486,2.94214884 17.1134266,2.2840627 16.829308,1.72981262 C16.5451893,1.17556254 16.1433364,0.748697917 15.6237492,0.44921875 C15.104162,0.149739583 14.490746,1.74120558e-12 13.7835011,1.74120558e-12 C13.0795114,1.74120558e-12 12.4670999,0.149739583 11.9462666,0.44921875 C11.4254333,0.748697917 11.0221435,1.17537181 10.7363972,1.72924042 C10.450651,2.28310903 10.3077778,2.9413859 10.3077778,3.70407104 L10.3077778,3.71383667 C10.3077778,4.4774882 10.4496464,5.13662974 10.7333836,5.69126129 C11.0171208,6.24589284 11.4192153,6.67313894 11.9396672,6.97299957 C12.460119,7.27286021 13.0747303,7.42279053 13.7835011,7.42279053 Z M13.7835011,5.93841553 C13.4524362,5.93841553 13.1632949,5.84705353 12.9160771,5.66432953 C12.6688593,5.48160553 12.476802,5.22326152 12.3399052,4.88929749 C12.2030084,4.55533346 12.13456,4.16351318 12.13456,3.71383667 L12.13456,3.70407104 C12.13456,3.25291951 12.2035679,2.86116282 12.3415837,2.52880096 C12.4795994,2.19643911 12.6722289,1.93927765 12.9194722,1.75731659 C13.1667154,1.57535553 13.454725,1.484375 13.7835011,1.484375 C14.1130401,1.484375 14.4014312,1.57535553 14.6486744,1.75731659 C14.8959177,1.93927765 15.0877334,2.19643911 15.2241215,2.52880096 C15.3605097,2.86116282 15.4287037,3.25291951 15.4287037,3.70407104 L15.4287037,3.71383667 C15.4287037,4.16351318 15.3605097,4.55533346 15.2241215,4.88929749 C15.0877334,5.22326152 14.8959177,5.48160553 14.6486744,5.66432953 C14.4014312,5.84705353 14.1130401,5.93841553 13.7835011,5.93841553 Z" id="Shape"></path>
                </g>
                <g id="EXPOSURE-TRIANGLE" transform="translate(49.980469, 88.414062)" fill="#84B1DD" fill-rule="nonzero">
                    <polygon id="Path" points="0 11.5859375 7.953125 11.5859375 7.953125 8.9609375 3.3125 8.9609375 3.3125 7.140625 7.6640625 7.140625 7.6640625 4.765625 3.3125 4.765625 3.3125 2.9375 7.953125 2.9375 7.953125 0.3125 0 0.3125"></polygon>
                    <polygon id="Path" points="9.4296875 11.5859375 12.9296875 11.5859375 15.5859375 6.90625 13.3828125 8.1875 14.921875 8.1875 16.8671875 11.5859375 20.5546875 11.5859375 16.3046875 4.6953125 17.078125 7.4296875 17.078125 5.890625 20.5703125 0.3125 16.8984375 0.3125 14.4609375 5.2265625 16.59375 3.90625 15.0546875 3.90625 13.28125 0.3125 9.421875 0.3125 12.75 5.875 12.75 7.4140625 13.5 4.6640625"></polygon>
                    <path d="M23.8828125,8.5078125 L27.265625,8.5078125 C28.1458333,8.5078125 28.9075521,8.34244792 29.5507812,8.01171875 C30.1940104,7.68098958 30.6914062,7.2109375 31.0429688,6.6015625 C31.3945312,5.9921875 31.5703125,5.27083333 31.5703125,4.4375 L31.5703125,4.421875 C31.5703125,3.58854167 31.3945312,2.86458333 31.0429688,2.25 C30.6914062,1.63541667 30.1940104,1.15885417 29.5507812,0.8203125 C28.9075521,0.481770833 28.1458333,0.3125 27.265625,0.3125 L23.8828125,0.3125 L23.8828125,2.8046875 L26.4765625,2.8046875 C27.0234375,2.8046875 27.4518229,2.93880208 27.7617188,3.20703125 C28.0716146,3.47526042 28.2265625,3.88020833 28.2265625,4.421875 L28.2265625,4.4375 C28.2265625,4.97395833 28.0716146,5.37890625 27.7617188,5.65234375 C27.4518229,5.92578125 27.0234375,6.0625 26.4765625,6.0625 L23.8828125,6.0625 L23.8828125,8.5078125 Z M22.2265625,11.5859375 L25.5390625,11.5859375 L25.5390625,0.3125 L22.2265625,0.3125 L22.2265625,11.5859375 Z" id="Shape"></path>
                    <path d="M38.421875,11.8984375 C39.5729167,11.8984375 40.5729167,11.6588542 41.421875,11.1796875 C42.2708333,10.7005208 42.9283854,10.0169271 43.3945312,9.12890625 C43.8606771,8.24088542 44.09375,7.18229167 44.09375,5.953125 L44.09375,5.9375 C44.09375,4.71354167 43.8606771,3.65755208 43.3945312,2.76953125 C42.9283854,1.88151042 42.2708333,1.19791667 41.421875,0.71875 C40.5729167,0.239583333 39.5729167,0 38.421875,0 C37.2760417,0 36.2773438,0.239583333 35.4257812,0.71875 C34.5742188,1.19791667 33.9140625,1.88151042 33.4453125,2.76953125 C32.9765625,3.65755208 32.7421875,4.71354167 32.7421875,5.9375 L32.7421875,5.953125 C32.7421875,7.18229167 32.9752604,8.24088542 33.4414062,9.12890625 C33.9075521,10.0169271 34.5664062,10.7005208 35.4179688,11.1796875 C36.2695312,11.6588542 37.2708333,11.8984375 38.421875,11.8984375 Z M38.421875,9.1953125 C37.96875,9.1953125 37.5690104,9.0625 37.2226562,8.796875 C36.8763021,8.53125 36.6054688,8.15494792 36.4101562,7.66796875 C36.2148438,7.18098958 36.1171875,6.609375 36.1171875,5.953125 L36.1171875,5.9375 C36.1171875,5.28125 36.2148438,4.7109375 36.4101562,4.2265625 C36.6054688,3.7421875 36.8763021,3.3671875 37.2226562,3.1015625 C37.5690104,2.8359375 37.96875,2.703125 38.421875,2.703125 C38.875,2.703125 39.2747396,2.8359375 39.6210938,3.1015625 C39.9674479,3.3671875 40.2369792,3.7421875 40.4296875,4.2265625 C40.6223958,4.7109375 40.71875,5.28125 40.71875,5.9375 L40.71875,5.953125 C40.71875,6.609375 40.6223958,7.18098958 40.4296875,7.66796875 C40.2369792,8.15494792 39.9674479,8.53125 39.6210938,8.796875 C39.2747396,9.0625 38.875,9.1953125 38.421875,9.1953125 Z" id="Shape"></path>
                    <path d="M50.1796875,11.8984375 C51.2161458,11.8984375 52.1015625,11.7395833 52.8359375,11.421875 C53.5703125,11.1041667 54.1315104,10.6549479 54.5195312,10.0742188 C54.9075521,9.49348958 55.1015625,8.80989583 55.1015625,8.0234375 L55.1015625,8.015625 C55.1015625,7.07291667 54.8111979,6.34244792 54.2304688,5.82421875 C53.6497396,5.30598958 52.7526042,4.93489583 51.5390625,4.7109375 L50.40625,4.5 C49.84375,4.39583333 49.4348958,4.26692708 49.1796875,4.11328125 C48.9244792,3.95963542 48.796875,3.7421875 48.796875,3.4609375 L48.796875,3.453125 C48.796875,3.28125 48.8489583,3.12630208 48.953125,2.98828125 C49.0572917,2.85026042 49.2122396,2.74088542 49.4179688,2.66015625 C49.6236979,2.57942708 49.8776042,2.5390625 50.1796875,2.5390625 C50.4817708,2.5390625 50.75,2.58072917 50.984375,2.6640625 C51.21875,2.74739583 51.4075521,2.86328125 51.5507812,3.01171875 C51.6940104,3.16015625 51.7838542,3.33854167 51.8203125,3.546875 L51.8359375,3.6328125 L54.875,3.6328125 L54.8671875,3.546875 C54.8046875,2.84895833 54.5911458,2.23307292 54.2265625,1.69921875 C53.8619792,1.16536458 53.3411458,0.748697917 52.6640625,0.44921875 C51.9869792,0.149739583 51.1458333,0 50.140625,0 C49.25,0 48.4570312,0.153645833 47.7617188,0.4609375 C47.0664062,0.768229167 46.5182292,1.203125 46.1171875,1.765625 C45.7161458,2.328125 45.515625,2.99479167 45.515625,3.765625 L45.515625,3.7734375 C45.515625,4.66927083 45.7916667,5.40234375 46.34375,5.97265625 C46.8958333,6.54296875 47.7760417,6.94270833 48.984375,7.171875 L50.1171875,7.3828125 C50.7421875,7.49739583 51.1822917,7.61848958 51.4375,7.74609375 C51.6927083,7.87369792 51.8203125,8.07291667 51.8203125,8.34375 L51.8203125,8.3515625 C51.8203125,8.54427083 51.7552083,8.71744792 51.625,8.87109375 C51.4947917,9.02473958 51.3111979,9.14453125 51.0742188,9.23046875 C50.8372396,9.31640625 50.5520833,9.359375 50.21875,9.359375 C49.8854167,9.359375 49.5924479,9.31510417 49.3398438,9.2265625 C49.0872396,9.13802083 48.8880208,9.01822917 48.7421875,8.8671875 C48.5963542,8.71614583 48.5104167,8.546875 48.484375,8.359375 L48.4765625,8.296875 L45.328125,8.296875 L45.3359375,8.453125 C45.3723958,9.17708333 45.5898438,9.79557292 45.9882812,10.3085938 C46.3867188,10.8216146 46.9414062,11.2148438 47.6523438,11.4882812 C48.3632812,11.7617188 49.2057292,11.8984375 50.1796875,11.8984375 Z" id="Path"></path>
                    <path d="M61.8671875,11.8984375 C62.8723958,11.8984375 63.7473958,11.7239583 64.4921875,11.375 C65.2369792,11.0260417 65.8151042,10.5364583 66.2265625,9.90625 C66.6380208,9.27604167 66.84375,8.53645833 66.84375,7.6875 L66.84375,0.3125 L63.53125,0.3125 L63.53125,7.359375 C63.53125,7.94791667 63.390625,8.40104167 63.109375,8.71875 C62.828125,9.03645833 62.4166667,9.1953125 61.875,9.1953125 C61.3385417,9.1953125 60.9283854,9.03645833 60.6445312,8.71875 C60.3606771,8.40104167 60.21875,7.94791667 60.21875,7.359375 L60.21875,0.3125 L56.90625,0.3125 L56.90625,7.6875 C56.90625,8.54166667 57.1132812,9.28385417 57.5273438,9.9140625 C57.9414062,10.5442708 58.5208333,11.0325521 59.265625,11.3789062 C60.0104167,11.7252604 60.8776042,11.8984375 61.8671875,11.8984375 Z" id="Path"></path>
                    <path d="M69.125,11.5859375 L72.4375,11.5859375 L72.4375,7.8046875 L73.375,7.8046875 C73.4010417,7.8046875 73.4270833,7.8046875 73.453125,7.8046875 C73.4791667,7.8046875 73.5026042,7.8046875 73.5234375,7.8046875 L75.3046875,11.5859375 L79.0078125,11.5859375 L76.8671875,7.3125 C77.4505208,7.03125 77.8984375,6.60026042 78.2109375,6.01953125 C78.5234375,5.43880208 78.6796875,4.81770833 78.6796875,4.15625 L78.6796875,4.140625 C78.6796875,3.33333333 78.5117188,2.64453125 78.1757812,2.07421875 C77.8398438,1.50390625 77.3411458,1.06770833 76.6796875,0.765625 C76.0182292,0.463541667 75.1927083,0.3125 74.203125,0.3125 L69.125,0.3125 L69.125,11.5859375 Z M72.4375,5.6171875 L72.4375,2.7578125 L73.8203125,2.7578125 C74.2734375,2.7578125 74.6341146,2.890625 74.9023438,3.15625 C75.1705729,3.421875 75.3046875,3.76302083 75.3046875,4.1796875 L75.3046875,4.1953125 C75.3046875,4.62239583 75.1705729,4.96614583 74.9023438,5.2265625 C74.6341146,5.48697917 74.2734375,5.6171875 73.8203125,5.6171875 L72.4375,5.6171875 Z" id="Shape"></path>
                    <polygon id="Path" points="80.578125 11.5859375 88.53125 11.5859375 88.53125 8.9609375 83.890625 8.9609375 83.890625 7.140625 88.2421875 7.140625 88.2421875 4.765625 83.890625 4.765625 83.890625 2.9375 88.53125 2.9375 88.53125 0.3125 80.578125 0.3125"></polygon>
                    <polygon id="Path" points="5.75 30.5859375 9.0625 30.5859375 9.0625 21.9375 12.1953125 21.9375 12.1953125 19.3125 2.6171875 19.3125 2.6171875 21.9375 5.75 21.9375"></polygon>
                    <path d="M13.8828125,30.5859375 L17.1953125,30.5859375 L17.1953125,26.8046875 L18.1328125,26.8046875 C18.1588542,26.8046875 18.1848958,26.8046875 18.2109375,26.8046875 C18.2369792,26.8046875 18.2604167,26.8046875 18.28125,26.8046875 L20.0625,30.5859375 L23.765625,30.5859375 L21.625,26.3125 C22.2083333,26.03125 22.65625,25.6002604 22.96875,25.0195312 C23.28125,24.4388021 23.4375,23.8177083 23.4375,23.15625 L23.4375,23.140625 C23.4375,22.3333333 23.2695312,21.6445312 22.9335938,21.0742188 C22.5976562,20.5039062 22.0989583,20.0677083 21.4375,19.765625 C20.7760417,19.4635417 19.9505208,19.3125 18.9609375,19.3125 L13.8828125,19.3125 L13.8828125,30.5859375 Z M17.1953125,24.6171875 L17.1953125,21.7578125 L18.578125,21.7578125 C19.03125,21.7578125 19.3919271,21.890625 19.6601562,22.15625 C19.9283854,22.421875 20.0625,22.7630208 20.0625,23.1796875 L20.0625,23.1953125 C20.0625,23.6223958 19.9283854,23.9661458 19.6601562,24.2265625 C19.3919271,24.4869792 19.03125,24.6171875 18.578125,24.6171875 L17.1953125,24.6171875 Z" id="Shape"></path>
                    <polygon id="Path" points="25.3359375 30.5859375 28.6484375 30.5859375 28.6484375 19.3125 25.3359375 19.3125"></polygon>
                    <path d="M30.2109375,30.5859375 L33.6953125,30.5859375 L35.890625,22 L36.828125,22 L36.828125,19.3125 L33.890625,19.3125 L30.2109375,30.5859375 Z M32.5234375,28.34375 L39.2890625,28.34375 L38.5703125,26.0078125 L33.2421875,26.0078125 L32.5234375,28.34375 Z M38.2421875,30.5859375 L41.7265625,30.5859375 L38.046875,19.3125 L36.046875,19.3125 L36.046875,22 L38.2421875,30.5859375 Z" id="Shape"></path>
                    <polygon id="Path" points="43.2734375 30.5859375 46.3984375 30.5859375 46.3984375 24.90625 48.03125 24.90625 45.6640625 23.7265625 50.8359375 30.5859375 53.3828125 30.5859375 53.3828125 19.3125 50.2578125 19.3125 50.2578125 24.90625 48.625 24.90625 50.9921875 26.078125 45.84375 19.3125 43.2734375 19.3125"></polygon>
                    <path d="M60.796875,30.8984375 C61.890625,30.8984375 62.8268229,30.6953125 63.6054688,30.2890625 C64.3841146,29.8828125 64.9804688,29.2981771 65.3945312,28.5351562 C65.8085938,27.7721354 66.015625,26.8567708 66.015625,25.7890625 L66.015625,24.3046875 L61.109375,24.3046875 L61.109375,26.5078125 L62.828125,26.5078125 L62.8125,26.6640625 C62.78125,26.9713542 62.6809896,27.2408854 62.5117188,27.4726562 C62.3424479,27.7044271 62.1171875,27.8828125 61.8359375,28.0078125 C61.5546875,28.1328125 61.234375,28.1953125 60.875,28.1953125 C60.390625,28.1953125 59.96875,28.0625 59.609375,27.796875 C59.25,27.53125 58.9713542,27.1523438 58.7734375,26.6601562 C58.5755208,26.1679688 58.4765625,25.5807292 58.4765625,24.8984375 L58.4765625,24.8828125 C58.4765625,24.2161458 58.5638021,23.6458333 58.7382812,23.171875 C58.9127604,22.6979167 59.1653646,22.3346354 59.4960938,22.0820312 C59.8268229,21.8294271 60.2265625,21.703125 60.6953125,21.703125 C61.1744792,21.703125 61.59375,21.8242188 61.953125,22.0664062 C62.3125,22.3085938 62.5338542,22.6276042 62.6171875,23.0234375 L62.6328125,23.09375 L65.890625,23.09375 L65.8828125,23.015625 C65.8046875,22.2291667 65.5325521,21.5351562 65.0664062,20.9335938 C64.6002604,20.3320312 63.9908854,19.859375 63.2382812,19.515625 C62.4856771,19.171875 61.6380208,19 60.6953125,19 C59.5390625,19 58.5429688,19.2382812 57.7070312,19.7148438 C56.8710938,20.1914062 56.2278646,20.8723958 55.7773438,21.7578125 C55.3268229,22.6432292 55.1015625,23.7005208 55.1015625,24.9296875 L55.1015625,24.9453125 C55.1015625,26.1901042 55.328125,27.2565104 55.78125,28.1445312 C56.234375,29.0325521 56.8854167,29.7135417 57.734375,30.1875 C58.5833333,30.6614583 59.6041667,30.8984375 60.796875,30.8984375 Z" id="Path"></path>
                    <polygon id="Path" points="67.734375 30.5859375 75.640625 30.5859375 75.640625 27.9609375 71.046875 27.9609375 71.046875 19.3125 67.734375 19.3125"></polygon>
                    <polygon id="Path" points="77.3671875 30.5859375 85.3203125 30.5859375 85.3203125 27.9609375 80.6796875 27.9609375 80.6796875 26.140625 85.03125 26.140625 85.03125 23.765625 80.6796875 23.765625 80.6796875 21.9375 85.3203125 21.9375 85.3203125 19.3125 77.3671875 19.3125"></polygon>
                </g>
            </g>
        </g>
    </g>
</svg>