<?xml version="1.0" encoding="UTF-8"?>
<svg width="40px" height="39px" viewBox="0 0 40 39" version="1.1" xmlns="http://www.w3.org/2000/svg" xmlns:xlink="http://www.w3.org/1999/xlink">
    <title>Group 4</title>
    <g id="Page-1" stroke="none" stroke-width="1" fill="none" fill-rule="evenodd">
        <g id="Simulator-Screen" transform="translate(-40.000000, -634.000000)">
            <g id="Group-4" transform="translate(40.000000, 634.000000)">
                <g id="Group" fill="#8E8E93" stroke="#0A0A0A">
                    <ellipse id="Oval" cx="20" cy="19.5" rx="19.5" ry="19"></ellipse>
                </g>
                <g id="Icon-iso" transform="translate(8.000000, 12.000000)">
                    <path d="M22.0561852,16 L1.94334817,16 C0.874390031,16 0,15.1299304 0,14.0668213 L0,1.93317865 C0,0.870069606 0.874390031,0 1.94334817,0 L22.0561852,0 C23.1251434,0 24,0.870069606 24,1.93317865 L24,14.0668213 C24,15.1299304 23.1251434,16 22.0561852,16" id="Fill-782" stroke="#000000" stroke-width="1.6"></path>
                    <g id="ISO" transform="translate(3.480325, 4.765656)" fill="#0C0C0C" fill-rule="nonzero">
                        <polygon id="Path" points="0 7.23434448 1.79229736 7.23434448 1.79229736 0.188446045 0 0.188446045"></polygon>
                        <path d="M6.20314121,7.42279053 C6.8220377,7.42279053 7.35300541,7.32635498 7.79604435,7.13348389 C8.23908329,6.94061279 8.57862949,6.66783651 8.81468296,6.31515503 C9.05073643,5.96247355 9.16876316,5.54644267 9.16876316,5.06706238 L9.16876316,5.06217957 C9.16876316,4.49195862 8.99279118,4.04660543 8.64084721,3.72612 C8.28890324,3.40563456 7.73636977,3.17276001 6.9832468,3.02749634 L6.25814915,2.88536072 C5.87693373,2.81115214 5.60087681,2.71483103 5.42997837,2.5963974 C5.25907993,2.47796377 5.17363071,2.31870015 5.17363071,2.11860657 L5.17363071,2.11372375 C5.17363071,1.97364807 5.21472772,1.85059865 5.29692173,1.7445755 C5.37911574,1.63855235 5.49685001,1.55556997 5.65012455,1.49562836 C5.80339909,1.43568675 5.98659356,1.40571594 6.19970798,1.40571594 C6.4158233,1.404953 6.60662174,1.43554688 6.77210331,1.49749756 C6.93758488,1.55944824 7.07059066,1.64479574 7.17112064,1.75354004 C7.27165063,1.86228434 7.33445326,1.99086507 7.35952854,2.13928223 L7.36929417,2.19528198 L9.03059483,2.19528198 L9.02571201,2.13813782 C8.99041335,1.7216746 8.86054834,1.35250092 8.63611698,1.03061676 C8.41168563,0.708732605 8.09509118,0.456492106 7.68633366,0.273895264 C7.27757613,0.0912984212 6.77768548,0 6.18666172,0 C5.6467549,0 5.16672611,0.0933710734 4.74657536,0.28011322 C4.3264246,0.466855367 3.99576664,0.729929606 3.75460148,1.06933594 C3.51343632,1.40874227 3.39247227,1.80870056 3.39170933,2.26921082 L3.39170933,2.27409363 C3.39170933,2.82259623 3.56138706,3.27164968 3.90074253,3.62125397 C4.240098,3.97085826 4.78168329,4.21877543 5.52549839,4.36500549 L6.25059605,4.5059967 C6.66329543,4.58595276 6.95584456,4.67985789 7.12824345,4.7877121 C7.30064233,4.8955663 7.38684177,5.04857381 7.38684177,5.24673462 L7.38684177,5.25161743 C7.38684177,5.39937337 7.33894189,5.53133647 7.24314213,5.64750671 C7.14734236,5.76367696 7.01361179,5.85431417 6.84195042,5.91941833 C6.67028904,5.9845225 6.46737258,6.01707458 6.23320103,6.01707458 C5.9945027,6.01707458 5.7836771,5.98484039 5.60072422,5.92037201 C5.41777134,5.85590363 5.27294,5.76755524 5.1662302,5.65532684 C5.0595204,5.54309845 4.99726454,5.41470846 4.97946262,5.27015686 L4.97457981,5.22766113 L3.26086521,5.22766113 L3.26574802,5.31509399 C3.29158624,5.75083415 3.42597802,6.12598419 3.66892338,6.44054413 C3.91186873,6.75510406 4.2482996,6.99745178 4.67821598,7.16758728 C5.10813236,7.33772278 5.61644077,7.42279053 6.20314121,7.42279053 Z" id="Path"></path>
                        <path d="M13.7835011,7.42279053 C14.4915089,7.42279053 15.1053064,7.27268219 15.6248936,6.97246552 C16.1444808,6.67224884 16.546143,6.24500275 16.8298802,5.69072723 C17.1136174,5.13645172 17.255486,4.4774882 17.255486,3.71383667 L17.255486,3.70407104 C17.255486,2.94214884 17.1134266,2.2840627 16.829308,1.72981262 C16.5451893,1.17556254 16.1433364,0.748697917 15.6237492,0.44921875 C15.104162,0.149739583 14.490746,0 13.7835011,0 C13.0795114,0 12.4670999,0.149739583 11.9462666,0.44921875 C11.4254333,0.748697917 11.0221435,1.17537181 10.7363972,1.72924042 C10.450651,2.28310903 10.3077778,2.9413859 10.3077778,3.70407104 L10.3077778,3.71383667 C10.3077778,4.4774882 10.4496464,5.13662974 10.7333836,5.69126129 C11.0171208,6.24589284 11.4192153,6.67313894 11.9396672,6.97299957 C12.460119,7.27286021 13.0747303,7.42279053 13.7835011,7.42279053 Z M13.7835011,5.93841553 C13.4524362,5.93841553 13.1632949,5.84705353 12.9160771,5.66432953 C12.6688593,5.48160553 12.476802,5.22326152 12.3399052,4.88929749 C12.2030084,4.55533346 12.13456,4.16351318 12.13456,3.71383667 L12.13456,3.70407104 C12.13456,3.25291951 12.2035679,2.86116282 12.3415837,2.52880096 C12.4795994,2.19643911 12.6722289,1.93927765 12.9194722,1.75731659 C13.1667154,1.57535553 13.454725,1.484375 13.7835011,1.484375 C14.1130401,1.484375 14.4014312,1.57535553 14.6486744,1.75731659 C14.8959177,1.93927765 15.0877334,2.19643911 15.2241215,2.52880096 C15.3605097,2.86116282 15.4287037,3.25291951 15.4287037,3.70407104 L15.4287037,3.71383667 C15.4287037,4.16351318 15.3605097,4.55533346 15.2241215,4.88929749 C15.0877334,5.22326152 14.8959177,5.48160553 14.6486744,5.66432953 C14.4014312,5.84705353 14.1130401,5.93841553 13.7835011,5.93841553 Z" id="Shape"></path>
                    </g>
                </g>
            </g>
        </g>
    </g>
</svg>