<?xml version="1.0" encoding="UTF-8"?>
<svg width="40px" height="39px" viewBox="0 0 40 39" version="1.1" xmlns="http://www.w3.org/2000/svg" xmlns:xlink="http://www.w3.org/1999/xlink">
    <title>Group 2</title>
    <g id="Page-1" stroke="none" stroke-width="1" fill="none" fill-rule="evenodd">
        <g id="Simulator-Screen-Copy-2" transform="translate(-143.000000, -636.000000)">
            <g id="Group-2" transform="translate(143.000000, 636.000000)">
                <ellipse id="Oval" stroke="#0A0A0A" fill="#91C0EE" cx="20" cy="19.5" rx="19.5" ry="19"></ellipse>
                <g id="Aperture-Icon" transform="translate(5.000000, 5.000000)">
                    <path d="M29.1388776,16.4516637 C28.1308776,24.4666637 20.8168776,30.1466637 12.8028776,29.1386637 C4.78787759,28.1306637 -0.892122412,20.8176637 0.115877588,12.8026637 C1.12287759,4.78866369 8.43687759,-0.89133631 16.4518776,0.11566369 C24.4658776,1.12366369 30.1458776,8.43766369 29.1388776,16.4516637" id="Fill-643" fill="#0C0C0C"></path>
                    <path d="M15.3418776,15.1636637 C16.1038776,15.3536637 16.8658776,15.5126637 17.6278776,15.6086637 C21.5858776,16.1066637 25.5288776,15.3156637 29.2168776,13.3036637 C29.1958776,13.0636637 29.1678776,12.8256637 29.1348776,12.5896637 C24.8588776,14.9946637 20.2158776,15.6696637 15.6258776,14.5536637 C19.5788776,12.5436637 22.4068776,9.18966369 23.8318776,4.80166369 C23.9638776,4.39366369 24.0828776,3.97666369 24.1898776,3.55466369 C23.9988776,3.39066369 23.8038776,3.23166369 23.6048776,3.07666369 C23.4828776,3.59166369 23.3498776,4.09966369 23.1898776,4.59266369 C21.8128776,8.83466369 19.0728776,12.0676637 15.2418776,13.9906637 C17.1128776,8.43866369 15.5028776,3.54066369 13.7608776,0.35366369 C13.7058776,0.25266369 13.6428776,0.15566369 13.5858776,0.0546636897 C13.3378776,0.0726636897 13.0908776,0.0966636897 12.8448776,0.12766369 C12.9528776,0.31066369 13.0668776,0.49166369 13.1688776,0.67766369 C14.8478776,3.74866369 16.3998776,8.46866369 14.5918776,13.8046637 C11.7488776,8.55466369 7.07787759,6.23866369 3.46887759,5.22266369 C3.31187759,5.40866369 3.15887759,5.59966369 3.01087759,5.79466369 C6.52387759,6.73366369 11.1928776,8.94766369 13.9978776,14.1256637 C9.24187759,12.9526637 4.38187759,13.5146637 0.0658775885,15.7176637 C0.0838775885,15.9606637 0.107877588,16.2026637 0.136877588,16.4436637 C4.35787759,14.2176637 9.13287759,13.6296637 13.8098776,14.7736637 C9.64587759,17.4496637 6.73787759,21.2646637 5.31887759,25.8996637 C5.50487759,26.0526637 5.69387759,26.2026637 5.88587759,26.3466637 C7.21887759,21.7886637 10.0298776,18.0336637 14.0798776,15.4006637 C12.8488776,19.9636637 13.4678776,24.8106637 15.8438776,29.2216637 C16.0878776,29.2016637 16.3318776,29.1756637 16.5738776,29.1436637 C14.1568776,24.7956637 13.5178776,19.9986637 14.7548776,15.4966637 C17.7548776,20.5826637 22.4318776,22.8446637 26.0188776,23.8466637 C26.1718776,23.6586637 26.3198776,23.4666637 26.4638776,23.2706637 C22.9708776,22.3406637 18.3028776,20.1756637 15.3418776,15.1636637" id="Fill-644" fill="#FFFFFE"></path>
                    <polyline id="Fill-645" fill="#91C0EE" points="15.1278776 4.91766369 21.6958776 7.89766369 21.9278776 8.00266369 24.1388776 14.9106637 21.1558776 21.4866637 14.1978776 24.0676637 7.70387759 21.1226637 5.04287759 14.1776637 8.07187759 7.49966369 15.1278776 4.91766369"></polyline>
                </g>
            </g>
        </g>
    </g>
</svg>