<?xml version="1.0" encoding="UTF-8"?>
<svg width="324px" height="117px" viewBox="0 0 324 117" version="1.1" xmlns="http://www.w3.org/2000/svg" xmlns:xlink="http://www.w3.org/1999/xlink">
    <title>Group</title>
    <g id="Page-1" stroke="none" stroke-width="1" fill="none" fill-rule="evenodd">
        <g id="Shutter-Speed---Learning-screen-" transform="translate(-37.000000, -186.000000)">
            <g id="Group" transform="translate(37.000000, 186.000000)">
                <rect id="Rectangle" fill="#91C0EE" x="16" y="51" width="290" height="13" rx="6.5"></rect>
                <rect id="Rectangle" stroke="#91C0EE" stroke-width="4" fill="#FFFFFF" x="34" y="30" width="95" height="26" rx="8"></rect>
                <g id="SHUTTER-SPEED" transform="translate(42.513300, 39.489090)" fill="#000000" fill-rule="nonzero">
                    <path d="M2.6480484,6.68051147 C3.20505524,6.68051147 3.68292618,6.59371948 4.08166122,6.4201355 C4.48039627,6.24655151 4.78598785,6.00105286 4.99843597,5.68363953 C5.21088409,5.3662262 5.31710815,4.9917984 5.31710815,4.56035614 L5.31710815,4.55596161 C5.31710815,4.04276276 5.15873337,3.64194489 4.8419838,3.353508 C4.52523422,3.06507111 4.0279541,2.85548401 3.35014343,2.7247467 L2.69755554,2.59682465 C2.35446167,2.53003693 2.10601044,2.44334793 1.95220184,2.33675766 C1.79839325,2.23016739 1.72148895,2.08683014 1.72148895,1.90674591 L1.72148895,1.90235138 C1.72148895,1.77628326 1.75847626,1.66553879 1.83245087,1.57011795 C1.90642548,1.47469711 2.01238632,1.40001297 2.1503334,1.34606552 C2.28828049,1.29211807 2.45315552,1.26514435 2.6449585,1.26514435 C2.83946228,1.2644577 3.01118088,1.29199219 3.16011429,1.3477478 C3.3090477,1.40350342 3.4287529,1.48031616 3.51922989,1.57818604 C3.60970688,1.67605591 3.66622925,1.79177856 3.688797,1.925354 L3.69758606,1.97575378 L5.19275665,1.97575378 L5.18836212,1.92432404 C5.15659332,1.54950714 5.03971481,1.21725082 4.83772659,0.927555084 C4.63573837,0.637859344 4.35080338,0.410842896 3.9829216,0.246505737 C3.61503983,0.0821685791 3.16513824,0 2.63321686,0 C2.14730072,0 1.71527481,0.0840339661 1.33713913,0.252101898 C0.959003448,0.42016983 0.661411285,0.656936646 0.44436264,0.962402344 C0.227313995,1.26786804 0.11844635,1.62783051 0.117759705,2.04228973 L0.117759705,2.04668427 C0.117759705,2.54033661 0.270469666,2.94448471 0.575889587,3.25912857 C0.881309509,3.57377243 1.36873627,3.79689789 2.03816986,3.92850494 L2.69075775,4.05539703 C3.06218719,4.12735748 3.32548141,4.2118721 3.48064041,4.30894089 C3.63579941,4.40600967 3.71337891,4.54371643 3.71337891,4.72206116 L3.71337891,4.72645569 C3.71337891,4.85943604 3.67026901,4.97820282 3.58404922,5.08275604 C3.49782944,5.18730927 3.37747192,5.26888275 3.22297668,5.3274765 C3.06848145,5.38607025 2.88585663,5.41536713 2.67510223,5.41536713 C2.46027374,5.41536713 2.2705307,5.38635635 2.10587311,5.32833481 C1.94121552,5.27031326 1.81086731,5.19079971 1.71482849,5.08979416 C1.61878967,4.9887886 1.5627594,4.87323761 1.54673767,4.74314117 L1.54234314,4.70489502 L0,4.70489502 L0.00439453125,4.78358459 C0.0276489258,5.17575073 0.148601532,5.51338577 0.36725235,5.79648972 C0.585903168,6.07959366 0.888690948,6.2977066 1.27561569,6.45082855 C1.66254044,6.6039505 2.12001801,6.68051147 2.6480484,6.68051147 Z" id="Path"></path>
                    <polygon id="Path" points="6.70374021 6.51091003 8.31680784 6.51091003 8.31680784 3.95391083 10.8404361 3.95391083 10.8404361 6.51091003 12.4535037 6.51091003 12.4535037 0.16960144 10.8404361 0.16960144 10.8404361 2.65573883 8.31680784 2.65573883 8.31680784 0.16960144 6.70374021 0.16960144"></polygon>
                    <path d="M16.8423465,6.68051147 C17.3982089,6.68051147 17.8804859,6.58236694 18.2891773,6.38607788 C18.6978687,6.18978882 19.0143436,5.91491318 19.238602,5.56145096 C19.4628604,5.20798874 19.5749896,4.79454803 19.5749896,4.32112885 L19.5749896,0.16960144 L17.961922,0.16960144 L17.961922,4.16732025 C17.961922,4.53458405 17.8664096,4.82260895 17.6753848,5.03139496 C17.4843601,5.24018097 17.2078021,5.34457397 16.8457111,5.34457397 C16.4865497,5.34457397 16.2103809,5.24018097 16.0172046,5.03139496 C15.8240283,4.82260895 15.7274402,4.53458405 15.7274402,4.16732025 L15.7274402,0.16960144 L14.1143726,0.16960144 L14.1143726,4.32112885 C14.1143726,4.79679108 14.2272342,5.2113533 14.4529575,5.56481552 C14.6786807,5.91827774 14.9960597,6.19259262 15.4050945,6.38776016 C15.8141292,6.5829277 16.2932132,6.68051147 16.8423465,6.68051147 Z" id="Path"></path>
                    <polygon id="Path" points="22.7153108 6.51091003 24.3284471 6.51091003 24.3284471 1.46777344 26.1562288 1.46777344 26.1562288 0.16960144 20.8875292 0.16960144 20.8875292 1.46777344 22.7153108 1.46777344"></polygon>
                    <polygon id="Path" points="28.9502698 6.51091003 30.5634061 6.51091003 30.5634061 1.46777344 32.3911878 1.46777344 32.3911878 0.16960144 27.1224882 0.16960144 27.1224882 1.46777344 28.9502698 1.46777344"></polygon>
                    <polygon id="Path" points="33.7057824 6.51091003 38.0522485 6.51091003 38.0522485 5.21273804 35.3188501 5.21273804 35.3188501 3.91916656 37.8896509 3.91916656 37.8896509 2.73085785 35.3188501 2.73085785 35.3188501 1.46777344 38.0522485 1.46777344 38.0522485 0.16960144 33.7057824 0.16960144"></polygon>
                    <path d="M39.5945989,6.51091003 L41.2076665,6.51091003 L41.2076665,4.29476166 L41.9657232,4.29476166 C41.9783117,4.29476166 41.9912549,4.29476166 42.004553,4.29476166 C42.017851,4.29476166 42.0296727,4.29476166 42.0400182,4.29476166 L43.1249868,6.51091003 L44.9383489,6.51091003 L43.6727239,4.05374908 C44.0172368,3.90309906 44.2831975,3.66495895 44.470606,3.33932877 C44.6580144,3.01369858 44.7517186,2.65697479 44.7517186,2.26915741 L44.7517186,2.26036835 C44.7517186,1.82334137 44.6597997,1.4490509 44.4759618,1.13749695 C44.2921239,0.825942993 44.0222036,0.586738586 43.6662008,0.419883728 C43.3101979,0.25302887 42.8712941,0.16960144 42.3494893,0.16960144 L39.5945989,0.16960144 L39.5945989,6.51091003 Z M41.2076665,3.18733978 L41.2076665,1.38819122 L42.1598378,1.38819122 C42.4509298,1.38819122 42.6813222,1.47041702 42.8510152,1.63486862 C43.0207082,1.79932022 43.1055547,2.01548767 43.1055547,2.28337097 L43.1055547,2.29216003 C43.1055547,2.56658936 43.0219098,2.78439331 42.8546201,2.9455719 C42.6873304,3.10675049 42.45846,3.18733978 42.1680089,3.18733978 L41.2076665,3.18733978 Z" id="Shape"></path>
                    <path d="M50.9506706,6.68051147 C51.5076774,6.68051147 51.9855484,6.59371948 52.3842834,6.4201355 C52.7830185,6.24655151 53.0886101,6.00105286 53.3010582,5.68363953 C53.5135063,5.3662262 53.6197304,4.9917984 53.6197304,4.56035614 L53.6197304,4.55596161 C53.6197304,4.04276276 53.4613556,3.64194489 53.144606,3.353508 C52.8278564,3.06507111 52.3305763,2.85548401 51.6527656,2.7247467 L51.0001777,2.59682465 C50.6570839,2.53003693 50.4086326,2.44334793 50.254824,2.33675766 C50.1010154,2.23016739 50.0241112,2.08683014 50.0241112,1.90674591 L50.0241112,1.90235138 C50.0241112,1.77628326 50.0610985,1.66553879 50.1350731,1.57011795 C50.2090477,1.47469711 50.3150085,1.40001297 50.4529556,1.34606552 C50.5909027,1.29211807 50.7557777,1.26514435 50.9475807,1.26514435 C51.1420845,1.2644577 51.3138031,1.29199219 51.4627365,1.3477478 C51.6116699,1.40350342 51.7313751,1.48031616 51.8218521,1.57818604 C51.9123291,1.67605591 51.9688514,1.79177856 51.9914192,1.925354 L52.0002083,1.97575378 L53.4953789,1.97575378 L53.4909843,1.92432404 C53.4592155,1.54950714 53.342337,1.21725082 53.1403488,0.927555084 C52.9383606,0.637859344 52.6534256,0.410842896 52.2855438,0.246505737 C51.917662,0.0821685791 51.4677604,0 50.9358391,0 C50.4499229,0 50.017897,0.0840339661 49.6397613,0.252101898 C49.2616256,0.42016983 48.9640335,0.656936646 48.7469848,0.962402344 C48.5299362,1.26786804 48.4210685,1.62783051 48.4203819,2.04228973 L48.4203819,2.04668427 C48.4203819,2.54033661 48.5730919,2.94448471 48.8785118,3.25912857 C49.1839317,3.57377243 49.6713585,3.79689789 50.3407921,3.92850494 L50.99338,4.05539703 C51.3648094,4.12735748 51.6281036,4.2118721 51.7832626,4.30894089 C51.9384216,4.40600967 52.0160011,4.54371643 52.0160011,4.72206116 L52.0160011,4.72645569 C52.0160011,4.85943604 51.9728912,4.97820282 51.8866714,5.08275604 C51.8004516,5.18730927 51.6800941,5.26888275 51.5255989,5.3274765 C51.3711036,5.38607025 51.1884788,5.41536713 50.9777244,5.41536713 C50.7628959,5.41536713 50.5731529,5.38635635 50.4084953,5.32833481 C50.2438377,5.27031326 50.1134895,5.19079971 50.0174507,5.08979416 C49.9214119,4.9887886 49.8653816,4.87323761 49.8493599,4.74314117 L49.8449653,4.70489502 L48.3026222,4.70489502 L48.3070167,4.78358459 C48.3302711,5.17575073 48.4512237,5.51338577 48.6698745,5.79648972 C48.8885254,6.07959366 49.1913131,6.2977066 49.5782379,6.45082855 C49.9651626,6.6039505 50.4226402,6.68051147 50.9506706,6.68051147 Z" id="Path"></path>
                    <path d="M55.8128962,4.65538788 L57.7372889,4.65538788 C58.2098384,4.65538788 58.6203494,4.56390381 58.968822,4.38093567 C59.3172946,4.19796753 59.5876727,3.93920517 59.7799563,3.60464859 C59.9722399,3.27009201 60.0683818,2.87628937 60.0683818,2.42324066 L60.0683818,2.4144516 C60.0683818,1.96144867 59.9722399,1.56687927 59.7799563,1.23074341 C59.5876727,0.894607544 59.3172946,0.633716583 58.968822,0.448070526 C58.6203494,0.262424469 58.2098384,0.16960144 57.7372889,0.16960144 L55.8128962,0.16960144 L55.8128962,1.40844727 L57.3498149,1.40844727 C57.691627,1.40844727 57.9584002,1.49362564 58.1501345,1.66398239 C58.3418688,1.83433914 58.437736,2.08518219 58.437736,2.41651154 L58.437736,2.4253006 C58.437736,2.75374603 58.3418688,3.00444031 58.1501345,3.17738342 C57.9584002,3.35032654 57.691627,3.4367981 57.3498149,3.4367981 L55.8128962,3.4367981 L55.8128962,4.65538788 Z M55.0063624,6.51091003 L56.61943,6.51091003 L56.61943,0.16960144 L55.0063624,0.16960144 L55.0063624,6.51091003 Z" id="Shape"></path>
                    <polygon id="Path" points="61.419592 6.51091003 65.7660581 6.51091003 65.7660581 5.21273804 63.0326596 5.21273804 63.0326596 3.91916656 65.6034604 3.91916656 65.6034604 2.73085785 63.0326596 2.73085785 63.0326596 1.46777344 65.7660581 1.46777344 65.7660581 0.16960144 61.419592 0.16960144"></polygon>
                    <polygon id="Path" points="67.3084085 6.51091003 71.6548745 6.51091003 71.6548745 5.21273804 68.9214761 5.21273804 68.9214761 3.91916656 71.4922769 3.91916656 71.4922769 2.73085785 68.9214761 2.73085785 68.9214761 1.46777344 71.6548745 1.46777344 71.6548745 0.16960144 67.3084085 0.16960144"></polygon>
                    <path d="M73.1972249,6.51091003 L75.8609975,6.51091003 C76.4976552,6.51091003 77.0363858,6.38622665 77.4771894,6.13685989 C77.9179929,5.88749313 78.2531217,5.52231216 78.4825757,5.04131699 C78.7120298,4.56032181 78.8267568,3.97382355 78.8267568,3.2818222 L78.8267568,3.27303314 C78.8267568,2.61248016 78.7109082,2.05084991 78.4792112,1.5881424 C78.2475141,1.12543488 77.9110921,0.773334503 77.4699453,0.531841278 C77.0287984,0.290348053 76.4924825,0.16960144 75.8609975,0.16960144 L73.1972249,0.16960144 L73.1972249,6.51091003 Z M74.8102925,5.21273804 L74.8102925,1.46777344 L75.5691045,1.46777344 C75.907575,1.46777344 76.1971906,1.53878403 76.4379514,1.68080521 C76.6787122,1.82282639 76.8630078,2.03051376 76.9908383,2.30386734 C77.1186689,2.57722092 77.1825841,2.909935 77.1825841,3.30200958 L77.1825841,3.31079865 C77.1825841,3.72690582 77.1205228,4.07651138 76.9964002,4.35961533 C76.8722776,4.64271927 76.6903966,4.85568237 76.4507573,4.99850464 C76.211118,5.1413269 75.9172338,5.21273804 75.5691045,5.21273804 L74.8102925,5.21273804 Z" id="Shape"></path>
                </g>
                <rect id="Rectangle" fill="#91C0EE" x="34" y="62" width="5" height="8" rx="2"></rect>
                <rect id="Rectangle" fill="#91C0EE" x="75" y="62" width="5" height="8" rx="2"></rect>
                <rect id="Rectangle" fill="#91C0EE" x="115" y="62" width="5" height="8" rx="2"></rect>
                <rect id="Rectangle" fill="#91C0EE" x="156" y="62" width="5" height="8" rx="2"></rect>
                <rect id="Rectangle" fill="#91C0EE" x="197" y="62" width="5" height="8" rx="2"></rect>
                <rect id="Rectangle" fill="#91C0EE" x="238" y="62" width="5" height="8" rx="2"></rect>
                <rect id="Rectangle" fill="#91C0EE" x="279" y="62" width="5" height="8" rx="2"></rect>
                <g id="1/1000" transform="translate(20.963460, 76.274033)" fill="#FFFFFF" fill-rule="nonzero">
                    <polygon id="Path" points="1.61238098 6.72596741 3.22544861 6.72596741 3.22544861 0.384658813 1.61341095 0.384658813 0 1.48301697 0 2.87388611 1.52861023 1.83966064 1.61238098 1.83966064"></polygon>
                    <polygon id="Path" points="7.6089946 0 6.1878444 0 4.45681107 8.34171295 5.87802994 8.34171295"></polygon>
                    <polygon id="Path" points="10.002121 6.72596741 11.6151887 6.72596741 11.6151887 0.384658813 10.003151 0.384658813 8.38974005 1.48301697 8.38974005 2.87388611 9.91835028 1.83966064 10.002121 1.83966064"></polygon>
                    <path d="M16.0607387,6.89556885 C16.6125728,6.89556885 17.0874912,6.76024246 17.4854938,6.48958969 C17.8834965,6.21893692 18.1894314,5.834198 18.4032986,5.33537292 C18.6171657,4.83654785 18.7240993,4.243927 18.7240993,3.55751038 L18.7240993,3.54872131 C18.7240993,2.86230469 18.6171657,2.27041626 18.4032986,1.77305603 C18.1894314,1.2756958 17.8834965,0.891689301 17.4854938,0.62103653 C17.0874912,0.350383759 16.6125728,0.215057373 16.0607387,0.215057373 C15.5088589,0.215057373 15.0335285,0.350383759 14.6347477,0.62103653 C14.2359669,0.891689301 13.9292538,1.2756958 13.7146084,1.77305603 C13.499963,2.27041626 13.3926403,2.86230469 13.3926403,3.54872131 L13.3926403,3.55751038 C13.3926403,4.243927 13.499963,4.83654785 13.7146084,5.33537292 C13.9292538,5.834198 14.2359669,6.21893692 14.6347477,6.48958969 C15.0335285,6.76024246 15.5088589,6.89556885 16.0607387,6.89556885 Z M16.0607387,5.65651703 C15.839822,5.65651703 15.6525852,5.57427979 15.4990284,5.4098053 C15.3454716,5.24533081 15.2284099,5.00667572 15.1478435,4.69384003 C15.0672771,4.38100433 15.0269939,4.00222778 15.0269939,3.55751038 L15.0269939,3.54872131 C15.0269939,3.10176086 15.0672771,2.72258377 15.1478435,2.41119003 C15.2284099,2.0997963 15.3454716,1.86260605 15.4990284,1.69961929 C15.6525852,1.53663254 15.839822,1.45513916 16.0607387,1.45513916 C16.2822964,1.45513916 16.4698536,1.53663254 16.6234104,1.69961929 C16.7769672,1.86260605 16.8936397,2.0997963 16.973428,2.41119003 C17.0532162,2.72258377 17.0931103,3.10176086 17.0931103,3.54872131 L17.0931103,3.55751038 C17.0931103,4.00222778 17.0532162,4.38100433 16.973428,4.69384003 C16.8936397,5.00667572 16.7769672,5.24533081 16.6234104,5.4098053 C16.4698536,5.57427979 16.2822964,5.65651703 16.0607387,5.65651703 Z" id="Shape"></path>
                    <path d="M22.6513597,6.89556885 C23.2031938,6.89556885 23.6781122,6.76024246 24.0761148,6.48958969 C24.4741175,6.21893692 24.7800524,5.834198 24.9939196,5.33537292 C25.2077867,4.83654785 25.3147203,4.243927 25.3147203,3.55751038 L25.3147203,3.54872131 C25.3147203,2.86230469 25.2077867,2.27041626 24.9939196,1.77305603 C24.7800524,1.2756958 24.4741175,0.891689301 24.0761148,0.62103653 C23.6781122,0.350383759 23.2031938,0.215057373 22.6513597,0.215057373 C22.0994799,0.215057373 21.6241495,0.350383759 21.2253687,0.62103653 C20.8265879,0.891689301 20.5198748,1.2756958 20.3052294,1.77305603 C20.090584,2.27041626 19.9832613,2.86230469 19.9832613,3.54872131 L19.9832613,3.55751038 C19.9832613,4.243927 20.090584,4.83654785 20.3052294,5.33537292 C20.5198748,5.834198 20.8265879,6.21893692 21.2253687,6.48958969 C21.6241495,6.76024246 22.0994799,6.89556885 22.6513597,6.89556885 Z M22.6513597,5.65651703 C22.430443,5.65651703 22.2432062,5.57427979 22.0896494,5.4098053 C21.9360926,5.24533081 21.8190309,5.00667572 21.7384645,4.69384003 C21.6578981,4.38100433 21.6176149,4.00222778 21.6176149,3.55751038 L21.6176149,3.54872131 C21.6176149,3.10176086 21.6578981,2.72258377 21.7384645,2.41119003 C21.8190309,2.0997963 21.9360926,1.86260605 22.0896494,1.69961929 C22.2432062,1.53663254 22.430443,1.45513916 22.6513597,1.45513916 C22.8729174,1.45513916 23.0604746,1.53663254 23.2140314,1.69961929 C23.3675882,1.86260605 23.4842607,2.0997963 23.5640489,2.41119003 C23.6438372,2.72258377 23.6837313,3.10176086 23.6837313,3.54872131 L23.6837313,3.55751038 C23.6837313,4.00222778 23.6438372,4.38100433 23.5640489,4.69384003 C23.4842607,5.00667572 23.3675882,5.24533081 23.2140314,5.4098053 C23.0604746,5.57427979 22.8729174,5.65651703 22.6513597,5.65651703 Z" id="Shape"></path>
                    <path d="M29.2419807,6.89556885 C29.7938148,6.89556885 30.2687332,6.76024246 30.6667358,6.48958969 C31.0647385,6.21893692 31.3706734,5.834198 31.5845405,5.33537292 C31.7984077,4.83654785 31.9053413,4.243927 31.9053413,3.55751038 L31.9053413,3.54872131 C31.9053413,2.86230469 31.7984077,2.27041626 31.5845405,1.77305603 C31.3706734,1.2756958 31.0647385,0.891689301 30.6667358,0.62103653 C30.2687332,0.350383759 29.7938148,0.215057373 29.2419807,0.215057373 C28.6901008,0.215057373 28.2147705,0.350383759 27.8159897,0.62103653 C27.4172089,0.891689301 27.1104957,1.2756958 26.8958504,1.77305603 C26.681205,2.27041626 26.5738823,2.86230469 26.5738823,3.54872131 L26.5738823,3.55751038 C26.5738823,4.243927 26.681205,4.83654785 26.8958504,5.33537292 C27.1104957,5.834198 27.4172089,6.21893692 27.8159897,6.48958969 C28.2147705,6.76024246 28.6901008,6.89556885 29.2419807,6.89556885 Z M29.2419807,5.65651703 C29.021064,5.65651703 28.8338272,5.57427979 28.6802704,5.4098053 C28.5267136,5.24533081 28.4096519,5.00667572 28.3290855,4.69384003 C28.2485191,4.38100433 28.2082359,4.00222778 28.2082359,3.55751038 L28.2082359,3.54872131 C28.2082359,3.10176086 28.2485191,2.72258377 28.3290855,2.41119003 C28.4096519,2.0997963 28.5267136,1.86260605 28.6802704,1.69961929 C28.8338272,1.53663254 29.021064,1.45513916 29.2419807,1.45513916 C29.4635383,1.45513916 29.6510956,1.53663254 29.8046524,1.69961929 C29.9582092,1.86260605 30.0748817,2.0997963 30.1546699,2.41119003 C30.2344581,2.72258377 30.2743523,3.10176086 30.2743523,3.54872131 L30.2743523,3.55751038 C30.2743523,4.00222778 30.2344581,4.38100433 30.1546699,4.69384003 C30.0748817,5.00667572 29.9582092,5.24533081 29.8046524,5.4098053 C29.6510956,5.57427979 29.4635383,5.65651703 29.2419807,5.65651703 Z" id="Shape"></path>
                </g>
                <g id="1/500" transform="translate(66.616656, 76.274033)" fill="#FFFFFF" fill-rule="nonzero">
                    <polygon id="Path" points="1.61238098 6.72596741 3.22544861 6.72596741 3.22544861 0.384658813 1.61341095 0.384658813 0 1.48301697 0 2.87388611 1.52861023 1.83966064 1.61238098 1.83966064"></polygon>
                    <polygon id="Path" points="7.6089946 0 6.1878444 0 4.45681107 8.34171295 5.87802994 8.34171295"></polygon>
                    <path d="M10.9583897,6.89556885 C11.4564366,6.89556885 11.8945622,6.80047989 12.2727665,6.61030197 C12.6509709,6.42012405 12.9457936,6.15328217 13.1572346,5.80977631 C13.3686756,5.46627045 13.4743962,5.06751251 13.4743962,4.6135025 L13.4743962,4.60471344 C13.4743962,4.20352936 13.3870663,3.8484993 13.2124066,3.53962326 C13.0377468,3.23074722 12.7977299,2.98756027 12.4923558,2.81006241 C12.1869816,2.63256454 11.8373188,2.54381561 11.4433674,2.54381561 C11.1315388,2.54381561 10.8581051,2.60863495 10.6230664,2.73827362 C10.3880276,2.86791229 10.2114109,3.03966522 10.0932164,3.25353241 L10.0094456,3.25353241 L10.1337971,1.62789917 L13.0823902,1.62789917 L13.0823902,0.384658813 L8.88314098,0.384658813 L8.61315197,4.19952393 L9.98939556,4.19952393 C10.0236363,4.13461304 10.0666203,4.07307816 10.1183476,4.01491928 C10.1700749,3.95676041 10.2271351,3.90467834 10.2895283,3.8586731 C10.3800282,3.79042053 10.4813427,3.73810959 10.5934719,3.70174026 C10.7056012,3.66537094 10.8278126,3.64718628 10.9601063,3.64718628 C11.1568989,3.64718628 11.3315701,3.68904877 11.4841198,3.77277374 C11.6366696,3.85649872 11.7563176,3.97211838 11.8430638,4.11963272 C11.92981,4.26714706 11.9731831,4.43886566 11.9731831,4.63478851 L11.9731831,4.64357758 C11.9731831,4.83789825 11.9299702,5.01066971 11.8435444,5.16189194 C11.7571186,5.31311417 11.6378598,5.43133163 11.4857678,5.51654434 C11.3336758,5.60175705 11.1585698,5.6443634 10.9604496,5.6443634 C10.7862248,5.6443634 10.62999,5.61285782 10.4917454,5.54984665 C10.3535008,5.48683548 10.2393116,5.40177155 10.149178,5.29465485 C10.0590443,5.18753815 9.99630779,5.06884003 9.96096843,4.93856049 L9.95320934,4.91013336 L8.50898784,4.91013336 L8.51338238,4.98209381 C8.53663677,5.34143829 8.65026516,5.66582108 8.85426754,5.95524216 C9.05826992,6.24466324 9.33934826,6.47373962 9.69750255,6.64247131 C10.0556569,6.811203 10.4759526,6.89556885 10.9583897,6.89556885 Z" id="Path"></path>
                    <path d="M17.3449678,6.89556885 C17.8968019,6.89556885 18.3717203,6.76024246 18.7697229,6.48958969 C19.1677255,6.21893692 19.4736604,5.834198 19.6875276,5.33537292 C19.9013948,4.83654785 20.0083284,4.243927 20.0083284,3.55751038 L20.0083284,3.54872131 C20.0083284,2.86230469 19.9013948,2.27041626 19.6875276,1.77305603 C19.4736604,1.2756958 19.1677255,0.891689301 18.7697229,0.62103653 C18.3717203,0.350383759 17.8968019,0.215057373 17.3449678,0.215057373 C16.7930879,0.215057373 16.3177576,0.350383759 15.9189768,0.62103653 C15.5201959,0.891689301 15.2134828,1.2756958 14.9988374,1.77305603 C14.7841921,2.27041626 14.6768694,2.86230469 14.6768694,3.54872131 L14.6768694,3.55751038 C14.6768694,4.243927 14.7841921,4.83654785 14.9988374,5.33537292 C15.2134828,5.834198 15.5201959,6.21893692 15.9189768,6.48958969 C16.3177576,6.76024246 16.7930879,6.89556885 17.3449678,6.89556885 Z M17.3449678,5.65651703 C17.1240511,5.65651703 16.9368143,5.57427979 16.7832575,5.4098053 C16.6297006,5.24533081 16.512639,5.00667572 16.4320726,4.69384003 C16.3515062,4.38100433 16.311223,4.00222778 16.311223,3.55751038 L16.311223,3.54872131 C16.311223,3.10176086 16.3515062,2.72258377 16.4320726,2.41119003 C16.512639,2.0997963 16.6297006,1.86260605 16.7832575,1.69961929 C16.9368143,1.53663254 17.1240511,1.45513916 17.3449678,1.45513916 C17.5665254,1.45513916 17.7540826,1.53663254 17.9076395,1.69961929 C18.0611963,1.86260605 18.1778688,2.0997963 18.257657,2.41119003 C18.3374452,2.72258377 18.3773393,3.10176086 18.3773393,3.54872131 L18.3773393,3.55751038 C18.3773393,4.00222778 18.3374452,4.38100433 18.257657,4.69384003 C18.1778688,5.00667572 18.0611963,5.24533081 17.9076395,5.4098053 C17.7540826,5.57427979 17.5665254,5.65651703 17.3449678,5.65651703 Z" id="Shape"></path>
                    <path d="M23.9355888,6.89556885 C24.4874229,6.89556885 24.9623413,6.76024246 25.3603439,6.48958969 C25.7583465,6.21893692 26.0642814,5.834198 26.2781486,5.33537292 C26.4920158,4.83654785 26.5989494,4.243927 26.5989494,3.55751038 L26.5989494,3.54872131 C26.5989494,2.86230469 26.4920158,2.27041626 26.2781486,1.77305603 C26.0642814,1.2756958 25.7583465,0.891689301 25.3603439,0.62103653 C24.9623413,0.350383759 24.4874229,0.215057373 23.9355888,0.215057373 C23.3837089,0.215057373 22.9083786,0.350383759 22.5095977,0.62103653 C22.1108169,0.891689301 21.8041038,1.2756958 21.5894584,1.77305603 C21.3748131,2.27041626 21.2674904,2.86230469 21.2674904,3.54872131 L21.2674904,3.55751038 C21.2674904,4.243927 21.3748131,4.83654785 21.5894584,5.33537292 C21.8041038,5.834198 22.1108169,6.21893692 22.5095977,6.48958969 C22.9083786,6.76024246 23.3837089,6.89556885 23.9355888,6.89556885 Z M23.9355888,5.65651703 C23.7146721,5.65651703 23.5274353,5.57427979 23.3738784,5.4098053 C23.2203216,5.24533081 23.10326,5.00667572 23.0226936,4.69384003 C22.9421272,4.38100433 22.901844,4.00222778 22.901844,3.55751038 L22.901844,3.54872131 C22.901844,3.10176086 22.9421272,2.72258377 23.0226936,2.41119003 C23.10326,2.0997963 23.2203216,1.86260605 23.3738784,1.69961929 C23.5274353,1.53663254 23.7146721,1.45513916 23.9355888,1.45513916 C24.1571464,1.45513916 24.3447036,1.53663254 24.4982605,1.69961929 C24.6518173,1.86260605 24.7684898,2.0997963 24.848278,2.41119003 C24.9280662,2.72258377 24.9679603,3.10176086 24.9679603,3.54872131 L24.9679603,3.55751038 C24.9679603,4.00222778 24.9280662,4.38100433 24.848278,4.69384003 C24.7684898,5.00667572 24.6518173,5.24533081 24.4982605,5.4098053 C24.3447036,5.57427979 24.1571464,5.65651703 23.9355888,5.65651703 Z" id="Shape"></path>
                </g>
                <g id="1/250" transform="translate(103.839751, 76.274033)" fill="#FFFFFF" fill-rule="nonzero">
                    <polygon id="Path" points="1.61238098 6.72596741 3.22544861 6.72596741 3.22544861 0.384658813 1.61341095 0.384658813 0 1.48301697 0 2.87388611 1.52861023 1.83966064 1.61238098 1.83966064"></polygon>
                    <polygon id="Path" points="7.6089946 0 6.1878444 0 4.45681107 8.34171295 5.87802994 8.34171295"></polygon>
                    <path d="M8.38346905,6.72596741 L13.2055745,6.72596741 L13.2055745,5.46823883 L10.083878,5.46823883 L10.5265583,5.75841522 L10.5265583,5.06352997 L10.082848,5.75841522 L11.5535054,4.47081757 C11.9418263,4.1337204 12.2504391,3.83247757 12.4793438,3.56708908 C12.7082486,3.30170059 12.8723111,3.05207062 12.9715313,2.81819916 C13.0707516,2.5843277 13.1203617,2.3483963 13.1203617,2.11040497 L13.1203617,2.09152222 C13.1203617,1.71505737 13.021748,1.38622284 12.8245205,1.10501862 C12.6272931,0.823814392 12.352097,0.605186462 11.9989323,0.449134827 C11.6457676,0.293083191 11.2329563,0.215057373 10.7604985,0.215057373 C10.2685856,0.215057373 9.8372578,0.30342865 9.466515,0.480171204 C9.09577221,0.656913757 8.80700344,0.903396606 8.6002087,1.21961975 C8.39341396,1.5358429 8.28967327,1.9050293 8.28898662,2.32717896 L8.29104656,2.35519409 L9.76788372,2.35622406 L9.76891369,2.32381439 C9.76891369,2.14890289 9.80816692,1.99481964 9.88667339,1.86156464 C9.96517986,1.72830963 10.0743794,1.62372208 10.214272,1.54780197 C10.3541645,1.47188187 10.5152745,1.43392181 10.6976017,1.43392181 C10.8747563,1.43392181 11.0274205,1.4661026 11.1555943,1.53046417 C11.2837681,1.59482574 11.3821644,1.68569183 11.4507832,1.80306244 C11.519402,1.92043304 11.5537114,2.05787659 11.5537114,2.21539307 L11.5537114,2.23434448 C11.5537114,2.36274719 11.5201344,2.49222565 11.4529805,2.62277985 C11.3858265,2.75333405 11.2670941,2.91007233 11.0967831,3.09299469 C10.9264721,3.27591705 10.6852192,3.51049805 10.3730244,3.79673767 L8.38346905,5.64875793 L8.38346905,6.72596741 Z" id="Path"></path>
                    <path d="M17.1028204,6.89556885 C17.6008673,6.89556885 18.0389929,6.80047989 18.4171972,6.61030197 C18.7954016,6.42012405 19.0902243,6.15328217 19.3016653,5.80977631 C19.5131063,5.46627045 19.6188269,5.06751251 19.6188269,4.6135025 L19.6188269,4.60471344 C19.6188269,4.20352936 19.531497,3.8484993 19.3568373,3.53962326 C19.1821775,3.23074722 18.9421606,2.98756027 18.6367865,2.81006241 C18.3314123,2.63256454 17.9817495,2.54381561 17.5877981,2.54381561 C17.2759695,2.54381561 17.0025358,2.60863495 16.7674971,2.73827362 C16.5324583,2.86791229 16.3558416,3.03966522 16.2376471,3.25353241 L16.1538763,3.25353241 L16.2782278,1.62789917 L19.2268209,1.62789917 L19.2268209,0.384658813 L15.0275717,0.384658813 L14.7575827,4.19952393 L16.1338263,4.19952393 C16.168067,4.13461304 16.211051,4.07307816 16.2627783,4.01491928 C16.3145056,3.95676041 16.3715658,3.90467834 16.433959,3.8586731 C16.5244589,3.79042053 16.6257734,3.73810959 16.7379026,3.70174026 C16.8500319,3.66537094 16.9722433,3.64718628 17.104537,3.64718628 C17.3013296,3.64718628 17.4760008,3.68904877 17.6285505,3.77277374 C17.7811003,3.85649872 17.9007483,3.97211838 17.9874945,4.11963272 C18.0742407,4.26714706 18.1176138,4.43886566 18.1176138,4.63478851 L18.1176138,4.64357758 C18.1176138,4.83789825 18.0744009,5.01066971 17.9879751,5.16189194 C17.9015493,5.31311417 17.7822905,5.43133163 17.6301985,5.51654434 C17.4781065,5.60175705 17.3030005,5.6443634 17.1048803,5.6443634 C16.9306555,5.6443634 16.7744207,5.61285782 16.6361761,5.54984665 C16.4979315,5.48683548 16.3837423,5.40177155 16.2936087,5.29465485 C16.203475,5.18753815 16.1407385,5.06884003 16.1053991,4.93856049 L16.09764,4.91013336 L14.6534185,4.91013336 L14.6578131,4.98209381 C14.6810675,5.34143829 14.7946959,5.66582108 14.9986982,5.95524216 C15.2027006,6.24466324 15.483779,6.47373962 15.8419333,6.64247131 C16.2000875,6.811203 16.6203833,6.89556885 17.1028204,6.89556885 Z" id="Path"></path>
                    <path d="M23.4893985,6.89556885 C24.0412326,6.89556885 24.516151,6.76024246 24.9141536,6.48958969 C25.3121562,6.21893692 25.6180911,5.834198 25.8319583,5.33537292 C26.0458255,4.83654785 26.1527591,4.243927 26.1527591,3.55751038 L26.1527591,3.54872131 C26.1527591,2.86230469 26.0458255,2.27041626 25.8319583,1.77305603 C25.6180911,1.2756958 25.3121562,0.891689301 24.9141536,0.62103653 C24.516151,0.350383759 24.0412326,0.215057373 23.4893985,0.215057373 C22.9375186,0.215057373 22.4621883,0.350383759 22.0634075,0.62103653 C21.6646266,0.891689301 21.3579135,1.2756958 21.1432681,1.77305603 C20.9286228,2.27041626 20.8213001,2.86230469 20.8213001,3.54872131 L20.8213001,3.55751038 C20.8213001,4.243927 20.9286228,4.83654785 21.1432681,5.33537292 C21.3579135,5.834198 21.6646266,6.21893692 22.0634075,6.48958969 C22.4621883,6.76024246 22.9375186,6.89556885 23.4893985,6.89556885 Z M23.4893985,5.65651703 C23.2684818,5.65651703 23.081245,5.57427979 22.9276882,5.4098053 C22.7741313,5.24533081 22.6570697,5.00667572 22.5765033,4.69384003 C22.4959369,4.38100433 22.4556537,4.00222778 22.4556537,3.55751038 L22.4556537,3.54872131 C22.4556537,3.10176086 22.4959369,2.72258377 22.5765033,2.41119003 C22.6570697,2.0997963 22.7741313,1.86260605 22.9276882,1.69961929 C23.081245,1.53663254 23.2684818,1.45513916 23.4893985,1.45513916 C23.7109561,1.45513916 23.8985133,1.53663254 24.0520702,1.69961929 C24.205627,1.86260605 24.3222995,2.0997963 24.4020877,2.41119003 C24.4818759,2.72258377 24.52177,3.10176086 24.52177,3.54872131 L24.52177,3.55751038 C24.52177,4.00222778 24.4818759,4.38100433 24.4020877,4.69384003 C24.3222995,5.00667572 24.205627,5.24533081 24.0520702,5.4098053 C23.8985133,5.57427979 23.7109561,5.65651703 23.4893985,5.65651703 Z" id="Shape"></path>
                </g>
                <g id="1/125" transform="translate(144.600298, 76.274033)" fill="#FFFFFF" fill-rule="nonzero">
                    <polygon id="Path" points="1.61238098 6.72596741 3.22544861 6.72596741 3.22544861 0.384658813 1.61341095 0.384658813 0 1.48301697 0 2.87388611 1.52861023 1.83966064 1.61238098 1.83966064"></polygon>
                    <polygon id="Path" points="7.6089946 0 6.1878444 0 4.45681107 8.34171295 5.87802994 8.34171295"></polygon>
                    <polygon id="Path" points="10.002121 6.72596741 11.6151887 6.72596741 11.6151887 0.384658813 10.003151 0.384658813 8.38974005 1.48301697 8.38974005 2.87388611 9.91835028 1.83966064 10.002121 1.83966064"></polygon>
                    <path d="M13.4529964,6.72596741 L18.2751018,6.72596741 L18.2751018,5.46823883 L15.1534054,5.46823883 L15.5960857,5.75841522 L15.5960857,5.06352997 L15.1523754,5.75841522 L16.6230327,4.47081757 C17.0113537,4.1337204 17.3199665,3.83247757 17.5488712,3.56708908 C17.7777759,3.30170059 17.9418384,3.05207062 18.0410587,2.81819916 C18.140279,2.5843277 18.1898891,2.3483963 18.1898891,2.11040497 L18.1898891,2.09152222 C18.1898891,1.71505737 18.0912754,1.38622284 17.8940479,1.10501862 C17.6968204,0.823814392 17.4216244,0.605186462 17.0684597,0.449134827 C16.715295,0.293083191 16.3024837,0.215057373 15.8300259,0.215057373 C15.338113,0.215057373 14.9067852,0.30342865 14.5360424,0.480171204 C14.1652996,0.656913757 13.8765308,0.903396606 13.6697361,1.21961975 C13.4629413,1.5358429 13.3592007,1.9050293 13.358514,2.32717896 L13.3605739,2.35519409 L14.8374111,2.35622406 L14.8384411,2.32381439 C14.8384411,2.14890289 14.8776943,1.99481964 14.9562008,1.86156464 C15.0347072,1.72830963 15.1439068,1.62372208 15.2837994,1.54780197 C15.4236919,1.47188187 15.5848019,1.43392181 15.7671291,1.43392181 C15.9442837,1.43392181 16.0969478,1.4661026 16.2251217,1.53046417 C16.3532955,1.59482574 16.4516918,1.68569183 16.5203106,1.80306244 C16.5889294,1.92043304 16.6232387,2.05787659 16.6232387,2.21539307 L16.6232387,2.23434448 C16.6232387,2.36274719 16.5896618,2.49222565 16.5225078,2.62277985 C16.4553539,2.75333405 16.3366215,2.91007233 16.1663105,3.09299469 C15.9959995,3.27591705 15.7547466,3.51049805 15.4425518,3.79673767 L13.4529964,5.64875793 L13.4529964,6.72596741 Z" id="Path"></path>
                    <path d="M22.1723478,6.89556885 C22.6703947,6.89556885 23.1085203,6.80047989 23.4867246,6.61030197 C23.864929,6.42012405 24.1597517,6.15328217 24.3711927,5.80977631 C24.5826337,5.46627045 24.6883543,5.06751251 24.6883543,4.6135025 L24.6883543,4.60471344 C24.6883543,4.20352936 24.6010244,3.8484993 24.4263647,3.53962326 C24.2517049,3.23074722 24.011688,2.98756027 23.7063138,2.81006241 C23.4009397,2.63256454 23.0512769,2.54381561 22.6573255,2.54381561 C22.3454969,2.54381561 22.0720632,2.60863495 21.8370245,2.73827362 C21.6019857,2.86791229 21.425369,3.03966522 21.3071744,3.25353241 L21.2234037,3.25353241 L21.3477552,1.62789917 L24.2963483,1.62789917 L24.2963483,0.384658813 L20.0970991,0.384658813 L19.8271101,4.19952393 L21.2033536,4.19952393 C21.2375944,4.13461304 21.2805784,4.07307816 21.3323057,4.01491928 C21.384033,3.95676041 21.4410932,3.90467834 21.5034864,3.8586731 C21.5939863,3.79042053 21.6953008,3.73810959 21.80743,3.70174026 C21.9195592,3.66537094 22.0417707,3.64718628 22.1740644,3.64718628 C22.370857,3.64718628 22.5455282,3.68904877 22.6980779,3.77277374 C22.8506277,3.85649872 22.9702756,3.97211838 23.0570219,4.11963272 C23.1437681,4.26714706 23.1871412,4.43886566 23.1871412,4.63478851 L23.1871412,4.64357758 C23.1871412,4.83789825 23.1439283,5.01066971 23.0575025,5.16189194 C22.9710767,5.31311417 22.8518178,5.43133163 22.6997259,5.51654434 C22.5476339,5.60175705 22.3725278,5.6443634 22.1744077,5.6443634 C22.0001829,5.6443634 21.8439481,5.61285782 21.7057035,5.54984665 C21.5674589,5.48683548 21.4532697,5.40177155 21.3631361,5.29465485 C21.2730024,5.18753815 21.2102659,5.06884003 21.1749265,4.93856049 L21.1671674,4.91013336 L19.7229459,4.91013336 L19.7273405,4.98209381 C19.7505949,5.34143829 19.8642232,5.66582108 20.0682256,5.95524216 C20.272228,6.24466324 20.5533063,6.47373962 20.9114606,6.64247131 C21.2696149,6.811203 21.6899107,6.89556885 22.1723478,6.89556885 Z" id="Path"></path>
                </g>
                <g id="1/60" transform="translate(189.816678, 76.274033)" fill="#FFFFFF" fill-rule="nonzero">
                    <polygon id="Path" points="1.61238098 6.72596741 3.22544861 6.72596741 3.22544861 0.384658813 1.61341095 0.384658813 0 1.48301697 0 2.87388611 1.52861023 1.83966064 1.61238098 1.83966064"></polygon>
                    <polygon id="Path" points="7.6089946 0 6.1878444 0 4.45681107 8.34171295 5.87802994 8.34171295"></polygon>
                    <path d="M11.0593266,6.89893341 C11.5634159,6.89893341 12.0060391,6.79940414 12.387196,6.60034561 C12.7683529,6.40128708 13.0661053,6.12927246 13.2804531,5.78430176 C13.494801,5.43933105 13.6019749,5.04803467 13.6019749,4.6104126 L13.6019749,4.60162354 C13.6019749,4.20341492 13.5175061,3.84968948 13.3485684,3.54044724 C13.1796307,3.23120499 12.9412274,2.98823547 12.6333584,2.8115387 C12.3254895,2.63484192 11.9610981,2.54649353 11.5401844,2.54649353 C11.2447895,2.54649353 10.9910397,2.58852768 10.7789349,2.67259598 C10.5668301,2.75666428 10.3921246,2.86667633 10.2548184,3.00263214 C10.1175122,3.13858795 10.0104298,3.28623962 9.93357128,3.44558716 L9.77976269,3.44558716 L9.77976269,4.64543152 L10.0457692,4.64543152 L10.0457692,4.63767242 C10.0457692,4.44989777 10.0909619,4.28371811 10.1813473,4.13913345 C10.2717327,3.9945488 10.3934864,3.88150406 10.5466084,3.79999924 C10.6997303,3.71849442 10.8698353,3.677742 11.0569233,3.677742 C11.2514729,3.677742 11.4236721,3.72034836 11.5735211,3.80556107 C11.72337,3.89077377 11.841679,4.0071373 11.9284481,4.15465164 C12.0152172,4.30216599 12.0586018,4.47161865 12.0586018,4.66300964 L12.0586018,4.67179871 C12.0586018,4.85668945 12.0134091,5.02339554 11.9230236,5.17191696 C11.8326382,5.32043839 11.7116169,5.43855286 11.5599598,5.52626038 C11.4083027,5.6139679 11.2384953,5.65782166 11.0505375,5.65782166 C10.864777,5.65782166 10.6955075,5.61362457 10.5427288,5.52523041 C10.3899502,5.43683624 10.2689289,5.31579208 10.179665,5.16209793 C10.0904011,5.00840378 10.0457692,4.83618164 10.0457692,4.64543152 L9.8399815,3.58065033 C9.8399815,3.53290558 9.8399815,3.48645401 9.8399815,3.44129562 C9.8399815,3.39613724 9.84144634,3.35112762 9.84437603,3.30626678 C9.86195415,2.95149994 9.9151234,2.63541412 10.0038838,2.35800934 C10.0926442,2.08060455 10.2234501,1.86185074 10.3963017,1.70174789 C10.5691532,1.54164505 10.7879643,1.46159363 11.0527348,1.46159363 C11.2014622,1.46159363 11.3342251,1.48552322 11.4510235,1.53338242 C11.5678219,1.58124161 11.6681408,1.64698792 11.7519802,1.73062134 C11.8358197,1.81425476 11.8987278,1.91061401 11.9407048,2.0196991 L11.9549183,2.05458069 L13.5218434,2.05458069 L13.5153889,2.02100372 C13.4540486,1.67836761 13.3111462,1.37149429 13.0866818,1.10038376 C12.8622174,0.829273224 12.5746045,0.614501953 12.223843,0.456069946 C11.8730816,0.297637939 11.4788899,0.218421936 11.0412678,0.218421936 C10.4859089,0.218421936 10.0041241,0.352226257 9.59591335,0.6198349 C9.1877026,0.887443542 8.87232631,1.27237701 8.64978451,1.77463531 C8.4272427,2.27689362 8.31597179,2.87825775 8.31597179,3.57872772 L8.31597179,3.58751678 C8.31597179,4.12456512 8.38144344,4.59911728 8.51238674,5.01117325 C8.64333004,5.42322922 8.83053249,5.76893234 9.0739941,6.04828262 C9.31745571,6.3276329 9.60693401,6.53924561 9.94242901,6.68312073 C10.277924,6.82699585 10.6502232,6.89893341 11.0593266,6.89893341 Z" id="Path"></path>
                    <path d="M17.5355439,6.89556885 C18.087378,6.89556885 18.5622963,6.76024246 18.960299,6.48958969 C19.3583016,6.21893692 19.6642365,5.834198 19.8781037,5.33537292 C20.0919709,4.83654785 20.1989045,4.243927 20.1989045,3.55751038 L20.1989045,3.54872131 C20.1989045,2.86230469 20.0919709,2.27041626 19.8781037,1.77305603 C19.6642365,1.2756958 19.3583016,0.891689301 18.960299,0.62103653 C18.5622963,0.350383759 18.087378,0.215057373 17.5355439,0.215057373 C16.983664,0.215057373 16.5083336,0.350383759 16.1095528,0.62103653 C15.710772,0.891689301 15.4040589,1.2756958 15.1894135,1.77305603 C14.9747681,2.27041626 14.8674454,2.86230469 14.8674454,3.54872131 L14.8674454,3.55751038 C14.8674454,4.243927 14.9747681,4.83654785 15.1894135,5.33537292 C15.4040589,5.834198 15.710772,6.21893692 16.1095528,6.48958969 C16.5083336,6.76024246 16.983664,6.89556885 17.5355439,6.89556885 Z M17.5355439,5.65651703 C17.3146271,5.65651703 17.1273903,5.57427979 16.9738335,5.4098053 C16.8202767,5.24533081 16.7032151,5.00667572 16.6226487,4.69384003 C16.5420823,4.38100433 16.501799,4.00222778 16.501799,3.55751038 L16.501799,3.54872131 C16.501799,3.10176086 16.5420823,2.72258377 16.6226487,2.41119003 C16.7032151,2.0997963 16.8202767,1.86260605 16.9738335,1.69961929 C17.1273903,1.53663254 17.3146271,1.45513916 17.5355439,1.45513916 C17.7571015,1.45513916 17.9446587,1.53663254 18.0982155,1.69961929 C18.2517723,1.86260605 18.3684449,2.0997963 18.4482331,2.41119003 C18.5280213,2.72258377 18.5679154,3.10176086 18.5679154,3.54872131 L18.5679154,3.55751038 C18.5679154,4.00222778 18.5280213,4.38100433 18.4482331,4.69384003 C18.3684449,5.00667572 18.2517723,5.24533081 18.0982155,5.4098053 C17.9446587,5.57427979 17.7571015,5.65651703 17.5355439,5.65651703 Z" id="Shape"></path>
                </g>
                <g id="1/30" transform="translate(230.928006, 76.274033)" fill="#FFFFFF" fill-rule="nonzero">
                    <polygon id="Path" points="1.61238098 6.72596741 3.22544861 6.72596741 3.22544861 0.384658813 1.61341095 0.384658813 0 1.48301697 0 2.87388611 1.52861023 1.83966064 1.61238098 1.83966064"></polygon>
                    <polygon id="Path" points="7.6089946 0 6.1878444 0 4.45681107 8.34171295 5.87802994 8.34171295"></polygon>
                    <path d="M10.8645939,6.88533783 C11.3972477,6.88533783 11.8582959,6.80438232 12.2477383,6.64247131 C12.6371807,6.4805603 12.9389042,6.25146103 13.1529087,5.95517349 C13.3669133,5.65888596 13.4739155,5.31136322 13.4739155,4.91260529 L13.4739155,4.90381622 C13.4739155,4.48409271 13.332787,4.14682388 13.0505299,3.89200974 C12.7682728,3.63719559 12.388947,3.48623657 11.9125523,3.43913269 L11.9125523,3.40809631 C12.1515049,3.35916138 12.3703732,3.27180862 12.5691571,3.14603806 C12.7679409,3.02026749 12.9267163,2.85799026 13.0454831,2.65920639 C13.1642498,2.46042252 13.2236332,2.22841644 13.2236332,1.96318817 L13.2236332,1.95439911 C13.2236332,1.60741425 13.1268277,1.30486679 12.9332165,1.04675674 C12.7396054,0.788646698 12.4651417,0.587207794 12.1098256,0.442440033 C11.7545094,0.297672272 11.335381,0.225288391 10.8524403,0.225288391 C10.3828205,0.225288391 9.97169155,0.305488586 9.6190533,0.465888977 C9.26641506,0.626289368 8.98675579,0.852241516 8.78007549,1.14374542 C8.57339519,1.43524933 8.45584148,1.77967072 8.42741436,2.17700958 L8.42301983,2.23784637 L9.8874287,2.23784637 L9.89182323,2.19726562 C9.90853161,2.04180908 9.95751232,1.9060936 10.0387654,1.79011917 C10.1200184,1.67414474 10.2299733,1.58451462 10.3686299,1.52122879 C10.5072865,1.45794296 10.6685566,1.42630005 10.8524403,1.42630005 C11.0338978,1.42630005 11.1900067,1.45664978 11.3207669,1.51734924 C11.4515271,1.57804871 11.551434,1.66469193 11.6204876,1.7772789 C11.6895413,1.88986588 11.7240681,2.02267456 11.7240681,2.17570496 L11.7240681,2.18449402 C11.7240681,2.33253479 11.6838993,2.46236801 11.6035618,2.57399368 C11.5232243,2.68561935 11.4088406,2.77163315 11.2604107,2.83203506 C11.1119809,2.89243698 10.9342427,2.92263794 10.7271962,2.92263794 L10.0478291,2.92263794 L10.0478291,4.01852417 L10.7354359,4.01852417 C11.0864033,4.01852417 11.3572735,4.08619308 11.5480465,4.22153091 C11.7388195,4.35686874 11.834206,4.55310059 11.834206,4.81022644 L11.834206,4.8190155 C11.834206,4.97428894 11.794701,5.1117897 11.715691,5.23151779 C11.636681,5.35124588 11.5244488,5.44541931 11.3789944,5.51403809 C11.23354,5.58265686 11.0609517,5.61696625 10.8612294,5.61696625 C10.5606617,5.61696625 10.3191914,5.54745483 10.1368183,5.40843201 C9.9544453,5.26940918 9.84938854,5.09516144 9.82164806,4.88568878 L9.81388897,4.83501434 L8.27539104,4.83501434 L8.27978557,4.89111328 C8.31132549,5.29248047 8.43672985,5.6426239 8.65599865,5.94154358 C8.87526745,6.24046326 9.17334026,6.47249222 9.55021709,6.63763046 C9.92709392,6.80276871 10.3652195,6.88533783 10.8645939,6.88533783 Z" id="Path"></path>
                    <path d="M17.3128883,6.89556885 C17.8647224,6.89556885 18.3396408,6.76024246 18.7376434,6.48958969 C19.135646,6.21893692 19.441581,5.834198 19.6554481,5.33537292 C19.8693153,4.83654785 19.9762489,4.243927 19.9762489,3.55751038 L19.9762489,3.54872131 C19.9762489,2.86230469 19.8693153,2.27041626 19.6554481,1.77305603 C19.441581,1.2756958 19.135646,0.891689301 18.7376434,0.62103653 C18.3396408,0.350383759 17.8647224,0.215057373 17.3128883,0.215057373 C16.7610084,0.215057373 16.2856781,0.350383759 15.8868973,0.62103653 C15.4881164,0.891689301 15.1814033,1.2756958 14.966758,1.77305603 C14.7521126,2.27041626 14.6447899,2.86230469 14.6447899,3.54872131 L14.6447899,3.55751038 C14.6447899,4.243927 14.7521126,4.83654785 14.966758,5.33537292 C15.1814033,5.834198 15.4881164,6.21893692 15.8868973,6.48958969 C16.2856781,6.76024246 16.7610084,6.89556885 17.3128883,6.89556885 Z M17.3128883,5.65651703 C17.0919716,5.65651703 16.9047348,5.57427979 16.751178,5.4098053 C16.5976211,5.24533081 16.4805595,5.00667572 16.3999931,4.69384003 C16.3194267,4.38100433 16.2791435,4.00222778 16.2791435,3.55751038 L16.2791435,3.54872131 C16.2791435,3.10176086 16.3194267,2.72258377 16.3999931,2.41119003 C16.4805595,2.0997963 16.5976211,1.86260605 16.751178,1.69961929 C16.9047348,1.53663254 17.0919716,1.45513916 17.3128883,1.45513916 C17.5344459,1.45513916 17.7220032,1.53663254 17.87556,1.69961929 C18.0291168,1.86260605 18.1457893,2.0997963 18.2255775,2.41119003 C18.3053657,2.72258377 18.3452598,3.10176086 18.3452598,3.54872131 L18.3452598,3.55751038 C18.3452598,4.00222778 18.3053657,4.38100433 18.2255775,4.69384003 C18.1457893,5.00667572 18.0291168,5.24533081 17.87556,5.4098053 C17.7220032,5.57427979 17.5344459,5.65651703 17.3128883,5.65651703 Z" id="Shape"></path>
                </g>
                <g id="1/4" transform="translate(274.125319, 76.274033)" fill="#FFFFFF" fill-rule="nonzero">
                    <polygon id="Path" points="1.61238098 6.72596741 3.22544861 6.72596741 3.22544861 0.384658813 1.61341095 0.384658813 0 1.48301697 0 2.87388611 1.52861023 1.83966064 1.61238098 1.83966064"></polygon>
                    <polygon id="Path" points="7.6089946 0 6.1878444 0 4.45681107 8.34171295 5.87802994 8.34171295"></polygon>
                    <path d="M11.3024442,6.72596741 L12.8305737,6.72596741 L12.8305737,5.64450073 L13.6202847,5.64450073 L13.6202847,4.38780212 L12.8305737,4.38780212 L12.8305737,0.384658813 L10.5886762,0.384658813 C10.4234235,0.643844604 10.2593495,0.904518127 10.0964543,1.16667938 C9.93355912,1.42884064 9.77162522,1.69258118 9.61065263,1.957901 C9.44968003,2.22322083 9.28942841,2.49187088 9.12989777,2.76385117 C8.97036713,3.03583145 8.812473,3.31005478 8.65621537,3.58652115 C8.49995774,3.86298752 8.3443982,4.14365387 8.18953675,4.4285202 L8.18953675,5.64450073 L11.3024442,5.64450073 L11.3024442,6.72596741 Z M9.58768433,4.44273376 L9.58768433,4.36301422 C9.6894452,4.1713028 9.79465073,3.97930527 9.90330094,3.78702164 C10.0119511,3.59473801 10.1227986,3.40284348 10.2358434,3.21133804 C10.3488881,3.01983261 10.4626538,2.82923126 10.5771405,2.639534 C10.6916272,2.44983673 10.8061711,2.26302338 10.9207723,2.07909393 C11.0353734,1.89516449 11.1498486,1.7142334 11.264198,1.53630066 L11.3439175,1.53630066 L11.3439175,4.44273376 L9.58768433,4.44273376 Z" id="Shape"></path>
                </g>
                <g id="MOTION" transform="translate(259.932222, 38.489090)" fill="#A32424" fill-rule="nonzero">
                    <polygon id="Path" points="0 6.51091003 1.41881561 6.51091003 1.41881561 2.47673035 2.2131958 2.47673035 0.750434875 0.34538269 2.9488678 6.51091003 3.86952209 6.51091003 6.06898499 0.34538269 4.60519409 2.47673035 5.39957428 2.47673035 5.39957428 6.51091003 6.81838989 6.51091003 6.81838989 0.16960144 4.9801712 0.16960144 3.45279694 4.46669769 3.37232208 4.46669769 1.83821869 0.16960144 0 0.16960144"></polygon>
                    <path d="M11.309452,6.68051147 C11.946659,6.68051147 12.4990768,6.54541397 12.9667052,6.27521896 C13.4343337,6.00502396 13.7958297,5.62050247 14.0511931,5.12165451 C14.3065566,4.62280655 14.4342383,4.02973938 14.4342383,3.342453 L14.4342383,3.33366394 C14.4342383,2.64793396 14.306385,2.05565643 14.0506782,1.55683136 C13.7949714,1.05800629 13.4333037,0.673828125 12.9656753,0.404296875 C12.4980468,0.134765625 11.9459724,0 11.309452,0 C10.6758613,0 10.1246909,0.134765625 9.65594092,0.404296875 C9.18719092,0.673828125 8.8242301,1.05783463 8.56705847,1.55631638 C8.30988684,2.05479813 8.18130103,2.64724731 8.18130103,3.33366394 L8.18130103,3.342453 C8.18130103,4.02973938 8.30898276,4.62296677 8.56434622,5.12213516 C8.81970969,5.62130356 9.18159476,6.00582504 9.65000144,6.27569962 C10.1184081,6.54557419 10.6715583,6.68051147 11.309452,6.68051147 Z M11.309452,5.34457397 C11.0114936,5.34457397 10.7512664,5.26234818 10.5287704,5.09789658 C10.3062743,4.93344498 10.1334228,4.70093536 10.0102157,4.40036774 C9.88700858,4.09980011 9.82540503,3.74716187 9.82540503,3.342453 L9.82540503,3.33366394 C9.82540503,2.92762756 9.88751212,2.57504654 10.0117263,2.27592087 C10.1359405,1.9767952 10.309307,1.74534988 10.5318259,1.58158493 C10.7543449,1.41781998 11.0135535,1.3359375 11.309452,1.3359375 C11.6060371,1.3359375 11.8655891,1.41781998 12.088108,1.58158493 C12.3106269,1.74534988 12.483261,1.9767952 12.6060103,2.27592087 C12.7287597,2.57504654 12.7901343,2.92762756 12.7901343,3.33366394 L12.7901343,3.342453 C12.7901343,3.74716187 12.7287597,4.09980011 12.6060103,4.40036774 C12.483261,4.70093536 12.3106269,4.93344498 12.088108,5.09789658 C11.8655891,5.26234818 11.6060371,5.34457397 11.309452,5.34457397 Z" id="Shape"></path>
                    <polygon id="Path" points="17.0803215 6.51091003 18.6934578 6.51091003 18.6934578 1.46777344 20.5212395 1.46777344 20.5212395 0.16960144 15.2525398 0.16960144 15.2525398 1.46777344 17.0803215 1.46777344"></polygon>
                    <polygon id="Path" points="21.8358341 6.51091003 23.4489017 6.51091003 23.4489017 0.16960144 21.8358341 0.16960144"></polygon>
                    <path d="M27.9399624,6.68051147 C28.5771695,6.68051147 29.1295872,6.54541397 29.5972157,6.27521896 C30.0648442,6.00502396 30.4263402,5.62050247 30.6817036,5.12165451 C30.9370671,4.62280655 31.0647488,4.02973938 31.0647488,3.342453 L31.0647488,3.33366394 C31.0647488,2.64793396 30.9368954,2.05565643 30.6811886,1.55683136 C30.4254819,1.05800629 30.0638142,0.673828125 29.5961857,0.404296875 C29.1285573,0.134765625 28.5764828,0 27.9399624,0 C27.3063717,0 26.7552014,0.134765625 26.2864514,0.404296875 C25.8177014,0.673828125 25.4547406,1.05783463 25.197569,1.55631638 C24.9403973,2.05479813 24.8118115,2.64724731 24.8118115,3.33366394 L24.8118115,3.342453 C24.8118115,4.02973938 24.9394932,4.62296677 25.1948567,5.12213516 C25.4502202,5.62130356 25.8121052,6.00582504 26.2805119,6.27569962 C26.7489186,6.54557419 27.3020688,6.68051147 27.9399624,6.68051147 Z M27.9399624,5.34457397 C27.6420041,5.34457397 27.3817769,5.26234818 27.1592808,5.09789658 C26.9367848,4.93344498 26.7639332,4.70093536 26.6407261,4.40036774 C26.5175191,4.09980011 26.4559155,3.74716187 26.4559155,3.342453 L26.4559155,3.33366394 C26.4559155,2.92762756 26.5180226,2.57504654 26.6422368,2.27592087 C26.7664509,1.9767952 26.9398175,1.74534988 27.1623364,1.58158493 C27.3848553,1.41781998 27.644064,1.3359375 27.9399624,1.3359375 C28.2365475,1.3359375 28.4960995,1.41781998 28.7186185,1.58158493 C28.9411374,1.74534988 29.1137715,1.9767952 29.2365208,2.27592087 C29.3592702,2.57504654 29.4206448,2.92762756 29.4206448,3.33366394 L29.4206448,3.342453 C29.4206448,3.74716187 29.3592702,4.09980011 29.2365208,4.40036774 C29.1137715,4.70093536 28.9411374,4.93344498 28.7186185,5.09789658 C28.4960995,5.26234818 28.2365475,5.34457397 27.9399624,5.34457397 Z" id="Shape"></path>
                    <polygon id="Path" points="32.427675 6.51091003 33.9578645 6.51091003 33.9578645 2.91412354 34.7562959 2.91412354 33.6124131 2.34077454 36.6907823 6.51091003 37.9685609 6.51091003 37.9685609 0.16960144 36.4383714 0.16960144 36.4383714 3.73342896 35.63994 3.73342896 36.7838227 4.30341339 33.7155473 0.16960144 32.427675 0.16960144"></polygon>
                </g>
                <rect id="Rectangle" stroke="#979797" x="0.5" y="0.5" width="323" height="116" rx="8"></rect>
            </g>
        </g>
    </g>
</svg>