<?xml version="1.0" encoding="UTF-8"?>
<svg width="40px" height="39px" viewBox="0 0 40 39" version="1.1" xmlns="http://www.w3.org/2000/svg" xmlns:xlink="http://www.w3.org/1999/xlink">
    <title>Group 2</title>
    <g id="Page-1" stroke="none" stroke-width="1" fill="none" fill-rule="evenodd">
        <g id="Simulator-Screen" transform="translate(-293.000000, -751.000000)">
            <g id="Group-2" transform="translate(293.000000, 751.000000)">
                <ellipse id="Oval" stroke="#0A0A0A" fill="#C7C7CC" cx="20" cy="19.5" rx="19.5" ry="19"></ellipse>
                <g id="Group-21" transform="translate(6.000000, 10.000000)" fill="#000000">
                    <path d="M0.595989428,1 L1.19197886,1 L1.19197886,13.8768792 L9.94715902,13.8768792 C11.3636227,13.8768792 12.651069,14.4531116 13.583922,15.3813803 C13.9472437,15.743188 14.2573764,16.1581947 14.5001364,16.613915 C14.7428964,16.1581947 15.0524836,15.743188 15.416078,15.3813803 C16.348931,14.4531116 17.6361046,13.8768792 19.0525682,13.8768792 L27.8080211,13.8768792 L27.8080211,1 L29,1 L29,15.0630004 L19.0525682,15.0630004 C17.9653307,15.0630004 16.9760156,15.5059638 16.2586461,16.2198079 C15.5415495,16.933652 15.0961258,17.917834 15.0961258,19 L13.9038742,19 C13.9038742,17.917834 13.4584505,16.933652 12.7410811,16.2198079 C12.0239844,15.5059638 11.0346693,15.0630004 9.94715902,15.0630004 L0,15.0630004 L0,1 L0.595989428,1" id="Fill-14"></path>
                    <path d="M3,1.25450104 L3,0 L9.81610327,0 C10.7311196,0 11.6188985,0.148367017 12.4575961,0.422487492 C13.1857258,0.660481425 13.8712465,0.992514675 14.4998652,1.40424694 C15.1290232,0.992514675 15.8142742,0.660481425 16.5421342,0.422487492 C17.3808318,0.148367017 18.2688804,0 19.1838967,0 L26,0 L26,12.3282512 L19.1838967,12.3282512 C18.3869992,12.3282512 17.6230023,12.4540046 16.9110533,12.6870346 C16.1715971,12.9286136 15.4787951,13.2873971 14.854761,13.7418745 L14.4998652,14 L14.145239,13.7418745 C13.5212049,13.2873971 12.8284029,12.9286136 12.0886771,12.6870346 C11.3769977,12.4540046 10.6132705,12.3282512 9.81610327,12.3282512 L3,12.3282512 L3,1.25450104 Z M24.7737756,11.0743017 L24.7737756,1.25450104 L19.1838967,1.25450104 C18.3869992,1.25450104 17.6230023,1.3802545 16.9110533,1.61273293 C16.1715971,1.85458772 15.4787951,2.21364693 14.854761,2.66784856 L14.4998652,2.92597408 L14.145239,2.66784856 C13.5212049,2.21364693 12.8284029,1.85458772 12.0886771,1.61273293 C11.3769977,1.3802545 10.6132705,1.25450104 9.81610327,1.25450104 L4.2262244,1.25450104 L4.2262244,11.0743017 L9.81610327,11.0743017 C10.7311196,11.0743017 11.6188985,11.2226687 12.4575961,11.4965134 C13.1857258,11.7345073 13.8712465,12.0662648 14.4998652,12.4779971 C15.1290232,12.0662648 15.8142742,11.7345073 16.5421342,11.4965134 C17.3808318,11.2226687 18.2688804,11.0743017 19.1838967,11.0743017 L24.7737756,11.0743017 L24.7737756,11.0743017 Z" id="Fill-15"></path>
                    <polygon id="Fill-16" points="14 13 15 13 15 2 14 2"></polygon>
                </g>
            </g>
        </g>
    </g>
</svg>